<svg xmlns="http://www.w3.org/2000/svg" viewBox="0 0 432 432">
  <g id="sub">
    <path d="M397.27,330.1583c1.7712,1.3312,2.4927,4.5266.3721,2.92-.7854-.595-1.6814-1.45-2.0627-1.7522-.5172-.4094-1.0655-.8613-1.673-1.3194-19.2868-14.5427-88.4457-47.3375-172.5489-81.1684C125.4818,210.2716,68.4956,194.812,51.24,194.26c-.9751-.0312-1.822.0021-2.5444.0476-2.5864.1631-4.7512-.1692-3.6484-2.2264,1.2747-2.378,7.8358-13.82,9.813-16.3656" fill="none" stroke="#fff" stroke-miterlimit="10"/>
    <path d="M316.0186,55.9228c.367.53-.1026,1.04-1.7842,1.4595-2.6455.66-20.2849,2.3773-29.1555,2.3764-4.2792,0-5.7184-.6972-6.274-1.5245-5.8677-8.7365-25.0693-26.2964-43.9622-28.1382-21.2956-2.0761-39.8532,4.3211-45.9821,7.5994S168.5952,49.0505,160.7561,54.76" fill="none" stroke="#fff" stroke-miterlimit="10"/>
    <path d="M279.8414,59.0512c-1.868,15.96-8.5405,36.8647-14.1053,51.6542-7.0078,18.6246-19.9841,49.7735-16.8763,83.97,1.5051,16.5608,7.4131,48.1974,14.8361,71.6287" fill="none" stroke="#fff" stroke-miterlimit="10"/>
    <path d="M240.8781,256.7809c-6.8126-22.4183-19.9211-81.8246-23.096-96.3386s-11.2327-71.2195-41.47-69.1029-66.3454,24.7731-95.2168,60.7541C53.227,186.8243,54.2458,188.5247,49.874,194.2459" fill="none" stroke="#fff" stroke-miterlimit="10"/>
    <path d="M174.4009,91.5c-14.032,20.2159-21.7365,48.899-15.6823,85.9168,3.1663,19.3605,12.0878,41.0711,23.6094,56.1608" fill="none" stroke="#fff" stroke-miterlimit="10"/>
    <path d="M310.7021,49.5808c6.9536,6.4142,16.2417,9.9279,25.9528,12.9774,7.2963,2.2913,7.9659,2.7016,7.9659,4.4542,0,1.7051.2248,4.5557-1.5071,5.27-1.4371.5927-5.6837,2.8536-5.6694,7.9658a35.3934,35.3934,0,0,1-1.534,9.7356" fill="none" stroke="#fff" stroke-miterlimit="10"/>
    <path d="M344.5561,69.7321c-.1043.3408-1.0416.4823-1.6178.572a70.31,70.31,0,0,1-11.03.6228c-3.0081-.1421-7.2121-1.4734-9.5732-3.8853" fill="none" stroke="#fff" stroke-miterlimit="10"/>
    <path d="M337.2307,155.2247c-1.6744-4.9779-6.038-7.7109-10.9888-2.931-4.7827,4.6175-17.036,20.3719-18.8024,23.1913-3.1764,5.07-8.1209,14.4194-5.4408,23.9063,2.9023,10.2732,10.0022,15.9925,15.388,17.0916s10.9364-.0549,15.278-5.88,9.1946-19.8883,9.5243-25.2741S338.0738,157.7312,337.2307,155.2247Z" fill="none" stroke="#fff" stroke-miterlimit="10"/>
    <path d="M255.2612,68.3183c2.2029-6.5793,6.889-10.9418,10.4668-9.7439l5.41,2.252c3.5778,1.1979,4.6925,7.5026,2.49,14.0819S266.739,85.85,263.1612,84.6522l-5.41-2.252C254.1731,81.2023,253.0585,74.8976,255.2612,68.3183Z" fill="none" stroke="#fff" stroke-miterlimit="10"/>
    <ellipse cx="261.7394" cy="70.4873" rx="12.5629" ry="6.8316" transform="translate(111.7999 296.3061) rotate(-71.4889)" fill="none" stroke="#fff" stroke-miterlimit="10"/>
    <path d="M241.0863,110.0345c1.62-6.7466,6.0243-11.4735,9.8379-10.558l5.4135,1.3c3.8136.9155,5.5921,7.1269,3.9724,13.8735s-6.0243,11.4736-9.8378,10.558l-5.4135-1.3C241.2451,122.9925,239.4666,116.7811,241.0863,110.0345Z" fill="none" stroke="#fff" stroke-miterlimit="10"/>
    <ellipse cx="247.9915" cy="111.6923" rx="12.5629" ry="7.1014" transform="translate(81.4928 326.7577) rotate(-76.5)" fill="none" stroke="#fff" stroke-miterlimit="10"/>
    <ellipse cx="217.1786" cy="63.8014" rx="13.3843" ry="6.7091" transform="translate(79.785 243.6907) rotate(-69)" fill="none" stroke="#fff" stroke-miterlimit="10"/>
    <ellipse cx="215.3984" cy="63.118" rx="17.1883" ry="8.6159" transform="translate(79.2808 241.5903) rotate(-69)" fill="none" stroke="#fff" stroke-miterlimit="10"/>
    <ellipse cx="219.5043" cy="64.6941" rx="20.6463" ry="13.1311" transform="translate(80.4438 246.4348) rotate(-69)" fill="none" stroke="#fff" stroke-miterlimit="10"/>
    <path d="M233.7157,56.49l3.3878,1.1934c3.6141,1.3873,4.4818,7.884,1.938,14.5107s-7.5356,10.8741-11.15,9.4867l-3.4906-1.2224" fill="none" stroke="#fff" stroke-miterlimit="10"/>
    <path d="M195.0586,70.4319l3.7162-22.95a2.6467,2.6467,0,0,1,2.63-2.4609l2.314.3748a2.4492,2.4492,0,0,1,1.7422,3.0218l-3.7163,22.95a2.6462,2.6462,0,0,1-2.63,2.4608l-2.3139-.3748C195.5937,73.2987,194.8135,71.9456,195.0586,70.4319Z" fill="none" stroke="#fff" stroke-miterlimit="10"/>
    <path d="M198.7748,47.482l-3.7162,22.95c-.2452,1.5137.535,2.8669,1.7422,3.0217a2.6462,2.6462,0,0,0,2.63-2.4608l3.7162-22.95a2.4492,2.4492,0,0,0-1.7422-3.0218A2.6468,2.6468,0,0,0,198.7748,47.482Z" fill="none" stroke="#fff" stroke-miterlimit="10"/>
    <path d="M334.1791,150.7444c-2.4928-2.1954-5.1655-2.6747-7.25-1.4147-1.53.9246-7.6459,7.861-10.3153,10.8475-4.1344,4.6256-13.5042,16.4988-15.3832,20.59a30.5943,30.5943,0,0,0-.87,23.3378c2.2827,5.619,7.1985,11.2878,13.5777,13.0476,3.9709,1.0955,7.7451.0537,10.0637-.6213" fill="none" stroke="#fff" stroke-miterlimit="10"/>
    <path d="M341.7129,188.4671c14.1794,71.2556,38.357,136.0863,55.1562,141.5577,2.2832.7437,2.904,1.1445,3.7451,4.6189,1.59,6.5669,4.6687,17.2038-2.3292,28.2607-6.9225,10.9374-33.5405,34.8561-44.812,41.5179a5.6982,5.6982,0,0,1-.9591.45c-8.8106,2.0934-79.1155-21.7585-162.9415-55.4779-77.4385-31.15-140.7178-60.3837-153.78-70.6586-1.572-1.2365-2.2585-2.0054-2.4713-2.8561-1.2168-7.3-4.9365-30.7336-3.775-53.5712.8993-17.6809,16.3389-35.0162,25.8406-47.27,9.0271-11.6413,42.1052-54.0681,57.47-72.4818s55.8558-62.2162,87.7855-70.8614,69.176-3.9221,86.9225,2.6969,27.8189,19.8569,30.1212,24.1737,15.2524,27.9148,19.8569,33.67,2.59,7.77,1.4015,11.243c-1.5843,4.63-6.4889,25.7827-4.6062,40.3087q.5256,4.0547,1.1083,8.1258" fill="none" stroke="#fff" stroke-miterlimit="10"/>
    <path d="M216.3113,84.433a8.7223,8.7223,0,0,0,4.8172,5.3981c6.3952,2.4549,15.2515-5.1206,19.781-16.92s3.0169-23.3553-3.3783-25.81a8.7012,8.7012,0,0,0-7.15.7668" fill="none" stroke="#fff" stroke-miterlimit="10"/>
    <path d="M238.7532,27.0029c19.7786,0,37.9515,3.34,48.8106,7.39A63.34,63.34,0,0,1,310.7,49.583,46.4872,46.4872,0,0,0,322.6437,57.33a113.1088,113.1088,0,0,0,14.012,5.2275c7.2962,2.291,7.9642,2.7012,7.9642,4.4531,0,1.7061.2228,4.56-1.5061,5.2686-1.4358.5977-5.6845,2.8545-5.6669,7.9707a35.5648,35.5648,0,0,1-1.5353,9.7334c.6153.9082,1.1662,1.67,1.6291,2.251,4.6062,5.7607,2.59,7.7705,1.4006,11.2451-1.5823,4.63-6.4874,25.78-4.6063,40.3076q.5275,4.0533,1.1135,8.1289v.0117a10.211,10.211,0,0,1,1.7816,3.2989c.8439,2.5019,5.2859,24.7187,4.9578,30.1045a22.59,22.59,0,0,1-.4747,3.1357c7.0852,35.624,16.6785,69.6494,26.5942,95.4463s20.1654,43.3789,28.5631,46.1094c.1408.0468.27.0879.3986.1347,1.9573.668,2.5551,1.2246,3.3463,4.4893,1.5881,6.5635,4.6648,17.2-2.3324,28.2588-6.9211,10.9345-33.5387,34.8564-44.8081,41.5136a5.4811,5.4811,0,0,1-.9612.4522,6.1828,6.1828,0,0,1-1.3832.1279c-13.1888,0-81.154-23.2646-161.5573-55.6025-77.4383-31.1533-140.718-60.3848-153.7807-70.6631-1.5706-1.2373-2.2562-2.0049-2.473-2.8545-1.2132-7.3018-4.9344-30.7314-3.7741-53.5693.9025-17.6807,16.3385-35.0157,25.8439-47.27,9.0251-11.6445,42.1007-54.0673,57.4665-72.48,15.3657-18.419,55.8548-62.2188,87.7877-70.8623a147.4682,147.4682,0,0,1,38.11-4.6944M240.88,256.78c-6.8155-22.4219-19.9251-81.8223-23.0955-96.3379-3.1183-14.252-10.94-69.1651-39.8384-69.1631-.5372,0-1.0833.0186-1.6351.0576-.633.0469-1.2775.1113-1.9222.1758-14.0237,20.2187-21.7243,48.8935-15.67,85.9072,3.1645,19.3565,12.09,41.0694,23.6113,56.1592q9.1507,3.4717,18.9054,7.2783,9.7572,3.816,20.1244,7.9824,9.9069,3.9815,19.5206,7.9405M238.7532,25.5029a147.7718,147.7718,0,0,0-38.5017,4.7461c-35.6839,9.6592-80.0218,61.13-88.5475,71.35-14.8744,17.8243-46.55,58.3946-57.5,72.5225-1.0771,1.3887-2.2311,2.8428-3.4315,4.3564-9.7572,12.2989-21.9,27.6055-22.7248,43.7559-.7907,15.5635.5206,34.1982,3.7923,53.8916l.0105.0625.0158.0625c.3473,1.36,1.3623,2.373,2.9982,3.6621,13.3543,10.5068,78.1831,40.3145,154.1492,70.876,80.2608,32.2812,148.4408,55.7109,162.1171,55.7109a7.524,7.524,0,0,0,1.73-.1689,6.562,6.562,0,0,0,1.4045-.6358c11.5122-6.8007,38.2932-30.9394,45.2856-41.9863,7.0179-11.0918,4.3452-21.9834,2.7484-28.4912l-.2255-.9229c-.8669-3.5771-1.7146-4.6669-4.32-5.5566-.0833-.03-.1944-.0674-.3115-.1055l-.0977-.0322c-7.4511-2.4228-17.5207-18.9053-27.6367-45.2246-10.1119-26.3066-19.5069-60.001-26.4638-94.9023a22.9442,22.9442,0,0,0,.4413-3.0489c.3405-5.59-4.1539-28.0683-5.0337-30.6767a12.0624,12.0624,0,0,0-1.7741-3.4326c-.3512-2.44-.6968-4.9707-1.0548-7.7207-1.8557-14.3311,3.0533-35.2842,4.5382-39.629.1632-.4775.35-.9414.5315-1.3916,1.1259-2.7949,2.29-5.6845-2.18-11.2753-.3406-.4278-.7356-.9649-1.1775-1.6a35.0338,35.0338,0,0,0,1.4122-9.45c-.0148-4.2714,3.6269-6.1191,4.7434-6.5839,2.4952-1.0235,2.4569-4.2266,2.4339-6.1407-.0021-.18-.0043-.3515-.0043-.5127,0-3.0537-2.09-3.71-9.0149-5.8837A112.3857,112.3857,0,0,1,323.28,55.9717a44.8786,44.8786,0,0,1-11.5322-7.4639A64.9293,64.9293,0,0,0,288.088,32.9873c-9.7016-3.6182-27.7566-7.4844-49.3348-7.4844ZM175.23,92.9365c.4-.0381.7984-.0742,1.1919-.1035.5055-.0351,1.02-.0537,1.5246-.0537,24.95-.002,33.6391,44.1045,37.35,62.9395.39,1.9794.727,3.69,1.0232,5.0439,2.5318,11.5918,15.0709,68.583,22.2357,93.4424-5.9848-2.4531-11.4521-4.6739-16.6361-6.7569-6.3566-2.5615-12.9441-5.1748-20.1374-7.9873-6.0538-2.3671-12.1157-4.7011-18.5175-7.1318-11.0649-14.6377-19.889-35.7236-23.0652-55.1514-6.762-41.3437,4.3356-68.5566,15.0312-84.2412Z" fill="#fff"/>
    <path d="M196.4776,332.228c86.7148,34.8814,155.4652,67.0013,153.5584,71.7416-.2409.5989-1.6018.7305-3.9642.4358-19.7245-3.5983-76.8823-23.3541-144.7393-50.3083q-5.829-2.3173-11.76-4.7029-5.8171-2.34-11.52-4.6607c-67.73-27.5792-122.7519-52.9481-139.4848-64.0243-1.9057-1.4218-2.7946-2.458-2.5538-3.0565C37.9207,272.9123,109.7628,297.3465,196.4776,332.228Z" fill="none" stroke="#fff" stroke-miterlimit="10" stroke-width="1.5"/>
    <g>
      <path d="M222.86,116.67l-.1318,22.9746,2.9441,2.3459.11-19.2681c.004-.81.1763-1.2881.4815-1.2137a.39.39,0,0,1,.11.0474c.2749.1661.5884.5974.5789,2.1143l-.0451,7.6944a2.8147,2.8147,0,0,0,1.3058.9036c1.175.2862,1.991-1.1757,2.0074-4.2573.0258-4.238-.8122-6.3215-3.3046-8.4216A33.9058,33.9058,0,0,0,222.86,116.67" fill="#fff"/>
      <path d="M229.6552,133.4884a5.0681,5.0681,0,0,0-.9867-.1446,6.0452,6.0452,0,0,0-2.2038.2986l-.1837.07-.02,3.1223,3.1767-1.2205a1.9268,1.9268,0,0,1,1.1209-.0461,1.6448,1.6448,0,0,1,.6479.3046c.4362.3568.351.8164-.1887,1.0295l-4.7667,1.8564-.0158,3.0136,6.4736-2.5631a2.6392,2.6392,0,0,0,1.23-1.0578c.3576-.7012.21-1.88-1.18-2.9863a7.34,7.34,0,0,0-3.1044-1.6767" fill="#fff"/>
      <path d="M222.2076,130.4233l-4.2474,1.6488a4.6623,4.6623,0,0,0-1.6336.996c-.6571.6961-.4282,2.2241,1,3.2714a7.5439,7.5439,0,0,0,2.9759,1.5665,5.4135,5.4135,0,0,0,1.57.1515c.096-.0027.2007-.0086.2938-.0172l.0133-2.701-1.4646.5882a1.9464,1.9464,0,0,1-1.1276.0456,1.652,1.652,0,0,1-.6412-.2989c-.4362-.3568-.351-.8164.1887-1.0347l3.0572-1.1974.0159-3.0188" fill="#fff"/>
    </g>
    <path d="M264.67,61.58,255.3882,74.75l8.9662,3.0019Zm-1.1762,3.5575-.2007,10.2756-5.6976-1.9076Z" fill="#fff"/>
    <path d="M245.9038,103.96l-3.5371,13.6661,7.4765,1.9351,3.5371-13.6661Zm3.4054,13.48-5.4465-1.41,2.5757-9.9518,5.4465,1.41Z" fill="#fff"/>
  </g>
</svg>
