<svg xmlns="http://www.w3.org/2000/svg" viewBox="0 0 432 432">
  <g id="sub">
    <path d="M34.73,330.1583c-1.7712,1.3312-2.4927,4.5266-.3721,2.92.7854-.595,1.6814-1.45,2.0627-1.7522.5172-.4094,1.0655-.8613,1.673-1.3194,19.2868-14.5427,88.4457-47.3375,172.5489-81.1684C306.5182,210.2716,363.5044,194.812,380.76,194.26c.9751-.0312,1.822.0021,2.5444.0476,2.5864.1631,4.7512-.1692,3.6484-2.2264-1.2747-2.378-7.8358-13.82-9.813-16.3656" fill="none" stroke="#fff" stroke-miterlimit="10"/>
    <path d="M115.9814,55.9228c-.367.53.1026,1.04,1.7842,1.4595,2.6455.66,20.2849,2.3773,29.1555,2.3764,4.2792,0,5.7184-.6972,6.274-1.5245,5.8677-8.7365,25.0693-26.2964,43.9622-28.1382,21.2956-2.0761,39.8532,4.3211,45.9821,7.5994S263.4048,49.0505,271.2439,54.76" fill="none" stroke="#fff" stroke-miterlimit="10"/>
    <path d="M152.1586,59.0512c1.868,15.96,8.54,36.8647,14.1053,51.6542,7.0078,18.6246,19.9841,49.7735,16.8763,83.97-1.5051,16.5608-7.4131,48.1974-14.8361,71.6287" fill="none" stroke="#fff" stroke-miterlimit="10"/>
    <path d="M191.1219,256.7809c6.8126-22.4183,19.9211-81.8246,23.096-96.3386s11.2327-71.2195,41.47-69.1029,66.3454,24.7731,95.2168,60.7541c27.8682,34.7308,26.8494,36.4312,31.2212,42.1524" fill="none" stroke="#fff" stroke-miterlimit="10"/>
    <path d="M257.5991,91.5c14.032,20.2159,21.7365,48.899,15.6823,85.9168-3.1663,19.3605-12.0878,41.0711-23.6094,56.1608" fill="none" stroke="#fff" stroke-miterlimit="10"/>
    <path d="M121.2979,49.5808c-6.9536,6.4142-16.2417,9.9279-25.9528,12.9774-7.2963,2.2913-7.9659,2.7016-7.9659,4.4542,0,1.7051-.2248,4.5557,1.5071,5.27,1.4371.5927,5.6837,2.8536,5.6694,7.9658a35.3934,35.3934,0,0,0,1.534,9.7356" fill="none" stroke="#fff" stroke-miterlimit="10"/>
    <path d="M87.4439,69.7321c.1043.3408,1.0416.4823,1.6178.572a70.31,70.31,0,0,0,11.03.6228c3.0081-.1421,7.2121-1.4734,9.5732-3.8853" fill="none" stroke="#fff" stroke-miterlimit="10"/>
    <path d="M94.7693,155.2247c1.6744-4.9779,6.038-7.7109,10.9888-2.931,4.7827,4.6175,17.036,20.3719,18.8024,23.1913,3.1764,5.07,8.1209,14.4194,5.4408,23.9063-2.9023,10.2732-10.0022,15.9925-15.388,17.0916s-10.9364-.0549-15.278-5.88-9.1946-19.8883-9.5243-25.2741S93.9262,157.7312,94.7693,155.2247Z" fill="none" stroke="#fff" stroke-miterlimit="10"/>
    <path d="M176.7388,68.3183c-2.2029-6.5793-6.889-10.9418-10.4668-9.7439l-5.41,2.252c-3.5778,1.1979-4.6925,7.5026-2.49,14.0819s6.8889,10.9418,10.4667,9.7439l5.41-2.252C177.8269,81.2023,178.9415,74.8976,176.7388,68.3183Z" fill="none" stroke="#fff" stroke-miterlimit="10"/>
    <ellipse cx="170.2606" cy="70.4873" rx="6.8316" ry="12.5629" transform="translate(-13.57 57.7025) rotate(-18.5111)" fill="none" stroke="#fff" stroke-miterlimit="10"/>
    <path d="M190.9137,110.0345c-1.62-6.7466-6.0243-11.4735-9.8379-10.558l-5.4135,1.3c-3.8136.9155-5.5921,7.1269-3.9724,13.8735s6.0243,11.4736,9.8378,10.558l5.4135-1.3C190.7549,122.9925,192.5334,116.7811,190.9137,110.0345Z" fill="none" stroke="#fff" stroke-miterlimit="10"/>
    <ellipse cx="184.0085" cy="111.6923" rx="7.1014" ry="12.5629" transform="translate(-20.9899 46.042) rotate(-13.5)" fill="none" stroke="#fff" stroke-miterlimit="10"/>
    <ellipse cx="214.8214" cy="63.8014" rx="6.7091" ry="13.3843" transform="translate(-8.596 81.2228) rotate(-21)" fill="none" stroke="#fff" stroke-miterlimit="10"/>
    <ellipse cx="216.6016" cy="63.118" rx="8.6159" ry="17.1883" transform="translate(-8.2329 81.8154) rotate(-21)" fill="none" stroke="#fff" stroke-miterlimit="10"/>
    <ellipse cx="212.4957" cy="64.6941" rx="13.1311" ry="20.6463" transform="translate(-9.0704 80.4486) rotate(-21)" fill="none" stroke="#fff" stroke-miterlimit="10"/>
    <path d="M198.2843,56.49l-3.3878,1.1934c-3.6141,1.3873-4.4818,7.884-1.938,14.5107s7.5356,10.8741,11.15,9.4867l3.4906-1.2224" fill="none" stroke="#fff" stroke-miterlimit="10"/>
    <path d="M236.9414,70.4319l-3.7162-22.95a2.6467,2.6467,0,0,0-2.63-2.4609l-2.314.3748a2.4492,2.4492,0,0,0-1.7422,3.0218l3.7163,22.95a2.6462,2.6462,0,0,0,2.63,2.4608l2.3139-.3748C236.4063,73.2987,237.1865,71.9456,236.9414,70.4319Z" fill="none" stroke="#fff" stroke-miterlimit="10"/>
    <path d="M230.5952,45.0211a2.4492,2.4492,0,0,0-1.7422,3.0218l3.7162,22.95a2.6462,2.6462,0,0,0,2.63,2.4608c1.2072-.1548,1.9874-1.508,1.7422-3.0217l-3.7162-22.95A2.6468,2.6468,0,0,0,230.5952,45.0211Z" fill="none" stroke="#fff" stroke-miterlimit="10"/>
    <path d="M97.8209,150.7444c2.4928-2.1954,5.1655-2.6747,7.25-1.4147,1.53.9246,7.6459,7.861,10.3153,10.8475,4.1344,4.6256,13.5042,16.4988,15.3832,20.59a30.5943,30.5943,0,0,1,.87,23.3378c-2.2827,5.619-7.1985,11.2878-13.5777,13.0476-3.9709,1.0955-7.7451.0537-10.0637-.6213" fill="none" stroke="#fff" stroke-miterlimit="10"/>
    <path d="M90.2871,188.4671C76.1077,259.7227,51.93,324.5534,35.1309,330.0248c-2.2832.7437-2.904,1.1445-3.7451,4.6189-1.59,6.5669-4.6687,17.2038,2.3292,28.2607,6.9225,10.9374,33.54,34.8561,44.812,41.5179a5.6982,5.6982,0,0,0,.9591.45c8.8106,2.0934,79.1155-21.7585,162.9415-55.4779,77.4385-31.15,140.7178-60.3837,153.78-70.6586,1.572-1.2365,2.2585-2.0054,2.4713-2.8561,1.2168-7.3,4.9365-30.7336,3.775-53.5712-.8993-17.6809-16.3389-35.0162-25.8406-47.27-9.0271-11.6413-42.1052-54.0681-57.4695-72.4818s-55.8558-62.2162-87.7855-70.8614-69.176-3.9221-86.9225,2.6969-27.8189,19.8569-30.1212,24.1737S99.0624,86.481,94.4579,92.2366s-2.59,7.77-1.4015,11.243c1.5843,4.63,6.4889,25.7827,4.6062,40.3087q-.5256,4.0547-1.1083,8.1258" fill="none" stroke="#fff" stroke-miterlimit="10"/>
    <path d="M215.6887,84.433a8.7223,8.7223,0,0,1-4.8172,5.3981c-6.3952,2.4549-15.2515-5.1206-19.781-16.92s-3.0169-23.3553,3.3783-25.81a8.7012,8.7012,0,0,1,7.15.7668" fill="none" stroke="#fff" stroke-miterlimit="10"/>
    <path d="M193.2468,27.0029a147.4694,147.4694,0,0,1,38.11,4.6944c31.9328,8.6435,72.4218,52.4433,87.7877,70.8623,15.3657,18.4131,48.4414,60.8359,57.4663,72.48,9.5055,12.2539,24.9415,29.5889,25.844,47.27,1.16,22.8379-2.5609,46.2675-3.7741,53.5693-.2169.85-.9024,1.6172-2.473,2.8545-13.0626,10.2783-76.3424,39.51-153.7807,70.6631C162.0184,381.7363,94.0521,404.999,80.87,404.999a6.1875,6.1875,0,0,1-1.3833-.1279,5.488,5.488,0,0,1-.9612-.4522c-11.2693-6.6572-37.8868-30.5791-44.808-41.5136-6.9972-11.0586-3.92-21.6953-2.3324-28.2588.7913-3.2647,1.389-3.8213,3.3462-4.4893.1289-.0468.2578-.0879.3987-.1347,8.3977-2.7305,18.6475-20.3116,28.563-46.1094s19.5092-59.8223,26.5942-95.4463a22.6047,22.6047,0,0,1-.4747-3.1357c-.328-5.3858,4.114-27.6026,4.9579-30.1045a10.2127,10.2127,0,0,1,1.7815-3.2989v-.0117q.5892-4.0709,1.1136-8.1289c1.8811-14.5273-3.024-35.6777-4.6063-40.3076-1.19-3.4746-3.2056-5.4844,1.4-11.2451.463-.5811,1.0139-1.3428,1.6293-2.251A35.5608,35.5608,0,0,1,94.5531,80.25c.0176-5.1162-4.2311-7.373-5.6669-7.9707-1.7289-.709-1.5061-3.5625-1.5061-5.2686,0-1.7519.668-2.1621,7.9643-4.4531A113.1133,113.1133,0,0,0,109.3563,57.33,46.4872,46.4872,0,0,0,121.3,49.583a63.34,63.34,0,0,1,23.1366-15.19c10.8591-4.05,29.0321-7.39,48.8106-7.39M191.12,256.78q9.608-3.9479,19.5207-7.9405,10.364-4.1761,20.1243-7.9824,9.7576-3.8144,18.9054-7.2783c11.5215-15.09,20.4468-36.8027,23.6114-56.1592,6.0537-37.0137-1.6469-65.6885-15.6706-85.9072-.6446-.0645-1.2893-.1289-1.9222-.1758-.5537-.039-1.0962-.0576-1.635-.0576-28.8939.0049-36.72,54.9121-39.8385,69.1631-3.17,14.5156-16.28,73.916-23.0955,96.3379m2.1272-231.2774c-21.5782,0-39.6332,3.8662-49.3348,7.4844a64.9279,64.9279,0,0,0-23.6592,15.5205A44.8715,44.8715,0,0,1,108.72,55.9717,112.2993,112.2993,0,0,1,94.8948,61.127C87.97,63.3008,85.88,63.957,85.88,67.0107c0,.1612-.002.3331-.0042.5127-.023,1.9141-.0614,5.1172,2.4412,6.1436,1.109.4619,4.7506,2.31,4.736,6.5781a35.0383,35.0383,0,0,0,1.4122,9.4531c-.4419.6348-.8372,1.1719-1.1792,1.6016-4.4686,5.5889-3.3043,8.4785-2.1783,11.2734.181.45.3683.9141.5318,1.3926,1.4847,4.3438,6.3936,25.2969,4.5379,39.6289-.3579,2.7491-.7036,5.28-1.0549,7.72a12.055,12.055,0,0,0-1.7749,3.4355c-.8789,2.6055-5.3733,25.083-5.0329,30.6719a22.9438,22.9438,0,0,0,.4413,3.0508c-6.9565,34.9-16.3516,68.5947-26.4637,94.9023-10.1159,26.3193-20.1855,42.8018-27.6268,45.2207l-.1062.0352c-.1176.039-.2292.0761-.3409.1162-2.5771.88-3.4249,1.97-4.2916,5.5459l-.2257.9238c-1.5968,6.5078-4.2694,17.3994,2.7483,28.49,6.9925,11.0479,33.7734,35.1866,45.3126,42.003h0a6.4793,6.4793,0,0,0,1.3775.62,7.53,7.53,0,0,0,1.73.1689c13.6763,0,81.8563-23.43,162.117-55.7109,75.9663-30.5615,140.7951-60.3692,154.1485-70.876,1.6365-1.2891,2.6515-2.3017,2.9989-3.6621l.0159-.0625.01-.0625c3.2717-19.6924,4.5831-38.3281,3.7923-53.8916-.8243-16.15-12.9676-31.457-22.7249-43.7559-1.2-1.5136-2.3543-2.9677-3.4319-4.3564-10.9472-14.125-42.6182-54.69-57.5-72.5225-8.5256-10.22-52.8639-61.69-88.5475-71.35a147.77,147.77,0,0,0-38.5016-4.7461Zm.198,228.7022c7.1648-24.8594,19.704-81.8506,22.2357-93.4424.2959-1.3525.6326-3.0606,1.0223-5.0391,3.7113-18.834,12.4023-62.94,37.3509-62.9443.5119,0,1.0111.0176,1.53.0537.39.0293.7865.0654,1.1859.1035,10.6957,15.6846,21.7932,42.8975,15.0312,84.2412-3.1761,19.4278-12,40.5137-23.0652,55.1514-6.4,2.43-12.4619,4.7637-18.5173,7.1309-7.194,2.8134-13.7814,5.4267-20.1389,7.9882-5.1832,2.083-10.65,4.3038-16.6348,6.7569Z" fill="#fff"/>
    <path d="M235.5224,332.228C148.8076,367.1094,80.0572,399.2293,81.964,403.97c.2409.5989,1.6018.7305,3.9642.4358,19.7245-3.5983,76.8823-23.3541,144.7393-50.3083q5.829-2.3173,11.76-4.7029,5.8171-2.34,11.52-4.6607c67.73-27.5792,122.7519-52.9481,139.4848-64.0243,1.9057-1.4218,2.7946-2.458,2.5538-3.0565C394.0793,272.9123,322.2372,297.3465,235.5224,332.228Z" fill="none" stroke="#fff" stroke-miterlimit="10" stroke-width="1.5"/>
    <g>
      <path d="M204.78,116.67l-.1318,22.9746,2.9441,2.3459.11-19.2681c.004-.81.1763-1.2881.4815-1.2137a.39.39,0,0,1,.11.0474c.2749.1661.5884.5974.5789,2.1143l-.0451,7.6944a2.8147,2.8147,0,0,0,1.3058.9036c1.175.2862,1.991-1.1757,2.0074-4.2573.0258-4.238-.8122-6.3215-3.3046-8.4216A33.9058,33.9058,0,0,0,204.78,116.67" fill="#fff"/>
      <path d="M211.5746,133.4884a5.068,5.068,0,0,0-.9868-.1446,6.0449,6.0449,0,0,0-2.2037.2986l-.1838.07-.0195,3.1223,3.1766-1.2205a1.9268,1.9268,0,0,1,1.1209-.0461,1.6435,1.6435,0,0,1,.6479.3046c.4362.3568.3511.8164-.1886,1.0295l-4.7667,1.8564-.0158,3.0136,6.4736-2.5631a2.6392,2.6392,0,0,0,1.23-1.0578c.3576-.7012.21-1.88-1.18-2.9863a7.3407,7.3407,0,0,0-3.1044-1.6767" fill="#fff"/>
      <path d="M204.127,130.4233l-4.2474,1.6488a4.6623,4.6623,0,0,0-1.6336.996c-.6571.6961-.4282,2.2241,1,3.2714a7.5443,7.5443,0,0,0,2.976,1.5665,5.4135,5.4135,0,0,0,1.57.1515c.096-.0027.2007-.0086.2938-.0172l.0133-2.701-1.4646.5882a1.9464,1.9464,0,0,1-1.1276.0456,1.6513,1.6513,0,0,1-.6412-.2989c-.4362-.3568-.3511-.8164.1887-1.0347l3.0572-1.1974.0159-3.0188" fill="#fff"/>
    </g>
    <path d="M174.6335,69.0081c-1.5287-4.5658-4.7261-7.6114-7.1417-6.8026s-3.1343,5.1655-1.6056,9.7313,4.7259,7.6115,7.1413,6.8028S176.1621,73.5738,174.6335,69.0081Zm-1.1581.3878c1.1238,3.3564.5954,6.56-1.1807,7.155s-4.1267-1.6454-5.2505-5.0018-.5953-6.56,1.18-7.1547S172.3517,66.04,173.4754,69.3959Z" fill="#fff"/>
    <polygon points="189.455 116.558 189.031 118.237 184.474 113.383 182.875 119.717 181.69 118.455 183.289 112.121 178.855 107.399 179.279 105.72 183.713 110.443 185.33 104.04 186.515 105.301 184.898 111.705 189.455 116.558" fill="#fff"/>
  </g>
</svg>
