# Blender 3.5.0
# www.blender.org
mtllib playstation_vr2_sense_left_create.mtl
o mesh_create_button_L
v -0.020026 -0.004901 0.048819
v -0.018561 -0.004912 0.048813
v -0.018620 -0.010030 0.042907
v -0.020086 -0.010020 0.042913
v -0.019295 -0.005093 0.048601
v -0.019351 -0.009840 0.043126
v -0.019731 -0.005105 0.048586
v -0.018860 -0.005111 0.048582
v -0.018915 -0.009827 0.043141
v -0.019787 -0.009822 0.043145
v -0.018837 -0.005388 0.048265
v -0.019299 -0.005382 0.048269
v -0.019760 -0.005382 0.048268
v -0.020241 -0.005363 0.048288
v -0.019809 -0.009548 0.043464
v -0.019348 -0.009553 0.043460
v -0.018886 -0.009553 0.043460
v -0.018406 -0.009572 0.043441
v -0.019768 -0.005698 0.047905
v -0.019303 -0.005701 0.047904
v -0.018838 -0.005704 0.047902
v -0.018352 -0.005694 0.047916
v -0.019787 -0.007309 0.046056
v -0.019321 -0.007312 0.046054
v -0.018856 -0.007315 0.046052
v -0.018371 -0.007317 0.046052
v -0.019809 -0.009233 0.043830
v -0.019344 -0.009237 0.043827
v -0.018879 -0.009240 0.043826
v -0.018394 -0.009257 0.043807
v -0.020272 -0.007304 0.046060
v -0.019292 -0.004779 0.048963
v -0.019716 -0.004815 0.048919
v -0.020170 -0.005097 0.048593
v -0.018356 -0.005376 0.048281
v -0.018422 -0.005110 0.048586
v -0.018869 -0.004821 0.048915
v -0.019355 -0.010152 0.042762
v -0.018931 -0.010115 0.042806
v -0.018477 -0.009835 0.043134
v -0.019778 -0.010110 0.042810
v -0.020290 -0.009560 0.043449
v -0.020225 -0.009824 0.043142
v -0.020295 -0.009244 0.043816
v -0.020253 -0.005680 0.047924
v -0.020540 -0.009673 0.043317
v -0.020754 -0.009753 0.043343
v -0.020891 -0.009973 0.043496
v -0.020891 -0.009973 0.043496
v -0.020564 -0.009367 0.043672
v -0.020782 -0.009428 0.043721
v -0.020917 -0.009627 0.043887
v -0.020917 -0.009627 0.043887
v -0.020384 -0.005025 0.048679
v -0.020598 -0.005046 0.048851
v -0.020665 -0.005205 0.049036
v -0.020665 -0.005205 0.049036
v -0.020132 -0.004820 0.048914
v -0.020297 -0.004798 0.049137
v -0.020350 -0.004947 0.049338
v -0.020350 -0.004947 0.049338
v -0.019751 -0.004663 0.049097
v -0.019844 -0.004612 0.049357
v -0.019868 -0.004755 0.049563
v -0.019868 -0.004755 0.049563
v -0.019290 -0.004608 0.049162
v -0.019289 -0.004547 0.049432
v -0.019287 -0.004682 0.049648
v -0.019287 -0.004682 0.049648
v -0.018830 -0.004669 0.049093
v -0.018737 -0.004618 0.049350
v -0.018704 -0.004757 0.049560
v -0.018704 -0.004757 0.049560
v -0.018454 -0.004832 0.048907
v -0.018284 -0.004804 0.049123
v -0.018228 -0.004953 0.049327
v -0.018228 -0.004953 0.049327
v -0.018206 -0.005040 0.048670
v -0.017991 -0.005056 0.048833
v -0.017912 -0.005213 0.049022
v -0.017912 -0.005213 0.049022
v -0.018101 -0.005261 0.048414
v -0.017855 -0.005319 0.048513
v -0.017756 -0.005500 0.048681
v -0.017756 -0.005500 0.048681
v -0.018069 -0.005644 0.047976
v -0.017831 -0.005674 0.048103
v -0.017726 -0.005840 0.048291
v -0.017726 -0.005840 0.048291
v -0.018270 -0.009908 0.043053
v -0.018090 -0.010039 0.043032
v -0.017975 -0.010275 0.043149
v -0.017975 -0.010275 0.043149
v -0.018521 -0.010108 0.042818
v -0.018380 -0.010270 0.042754
v -0.018292 -0.010534 0.042844
v -0.018292 -0.010534 0.042844
v -0.018899 -0.010264 0.042636
v -0.018825 -0.010453 0.042545
v -0.018776 -0.010728 0.042617
v -0.018776 -0.010728 0.042617
v -0.019357 -0.010317 0.042572
v -0.019358 -0.010517 0.042472
v -0.019360 -0.010800 0.042533
v -0.019360 -0.010800 0.042533
v -0.019360 -0.010800 0.042533
v -0.019812 -0.010258 0.042640
v -0.019890 -0.010446 0.042549
v -0.019943 -0.010723 0.042620
v -0.019943 -0.010723 0.042620
v -0.020186 -0.010098 0.042825
v -0.020329 -0.010261 0.042758
v -0.020421 -0.010525 0.042852
v -0.020421 -0.010525 0.042852
v -0.020433 -0.009894 0.043062
v -0.020618 -0.010020 0.043041
v -0.020733 -0.010262 0.043161
v -0.020733 -0.010262 0.043161
v -0.020494 -0.005244 0.048424
v -0.020740 -0.005303 0.048530
v -0.020831 -0.005486 0.048701
v -0.020831 -0.005486 0.048701
v -0.018160 -0.009689 0.043306
v -0.017947 -0.009769 0.043331
v -0.017810 -0.009987 0.043481
v -0.017810 -0.009987 0.043481
v -0.020536 -0.005626 0.047987
v -0.020774 -0.005659 0.048120
v -0.020871 -0.005826 0.048311
v -0.020871 -0.005826 0.048311
v -0.018101 -0.007315 0.046056
v -0.017871 -0.007379 0.046118
v -0.017747 -0.007584 0.046293
v -0.017747 -0.007584 0.046293
v -0.020544 -0.007298 0.046067
v -0.020775 -0.007362 0.046133
v -0.020892 -0.007558 0.046303
v -0.020892 -0.007558 0.046303
v -0.018118 -0.009312 0.043745
v -0.017908 -0.009425 0.043735
v -0.017774 -0.009649 0.043873
v -0.017774 -0.009649 0.043873
v -0.018761 -0.014294 0.045509
v -0.018292 -0.014107 0.045738
v -0.017979 -0.013846 0.046044
v -0.017806 -0.013568 0.046386
v -0.017773 -0.013245 0.046785
v -0.017747 -0.011247 0.049253
v -0.017726 -0.009587 0.051305
v -0.017751 -0.009262 0.051708
v -0.017909 -0.008987 0.052049
v -0.018216 -0.008738 0.052373
v -0.018699 -0.008547 0.052611
v -0.019287 -0.008471 0.052705
v -0.019879 -0.008542 0.052618
v -0.020352 -0.008728 0.052387
v -0.020666 -0.008973 0.052068
v -0.020838 -0.009246 0.051730
v -0.020872 -0.009569 0.051330
v -0.020894 -0.011232 0.049274
v -0.020919 -0.013231 0.046805
v -0.020894 -0.013556 0.046405
v -0.020729 -0.013848 0.046061
v -0.020416 -0.014103 0.045745
v -0.019945 -0.014289 0.045515
v -0.019361 -0.014365 0.045421
v -0.019361 -0.014365 0.045421
v -0.020871 -0.005948 0.048409
v -0.020892 -0.007679 0.046401
v -0.020917 -0.009748 0.043985
v -0.020891 -0.010094 0.043595
v -0.020733 -0.010384 0.043260
v -0.020421 -0.010646 0.042950
v -0.019943 -0.010844 0.042718
v -0.019360 -0.010921 0.042632
v -0.019360 -0.010921 0.042632
v -0.018775 -0.010849 0.042716
v -0.018292 -0.010655 0.042943
v -0.017975 -0.010396 0.043247
v -0.017810 -0.010109 0.043579
v -0.017774 -0.009770 0.043972
v -0.017747 -0.007705 0.046391
v -0.017726 -0.005962 0.048389
v -0.017756 -0.005622 0.048779
v -0.017912 -0.005335 0.049120
v -0.018228 -0.005075 0.049424
v -0.018704 -0.004878 0.049658
v -0.019287 -0.004804 0.049746
v -0.019868 -0.004876 0.049661
v -0.020351 -0.005068 0.049436
v -0.020665 -0.005326 0.049134
v -0.020832 -0.005608 0.048799
vn 0.0028 0.7541 -0.6568
vn 0.0028 0.7539 -0.6570
vn 0.0029 0.7541 -0.6567
vn 0.0029 0.7538 -0.6571
vn 0.0027 0.7538 -0.6571
vn 0.0027 0.7542 -0.6567
vn -0.0000 0.7550 -0.6557
vn 0.0005 0.7537 -0.6572
vn 0.0018 0.7565 -0.6540
vn -0.0005 0.7564 -0.6541
vn 0.0028 0.7565 -0.6539
vn 0.0027 0.7541 -0.6568
vn 0.0027 0.7539 -0.6570
vn 0.0036 0.7564 -0.6541
vn 0.0046 0.7549 -0.6559
vn 0.0053 0.7561 -0.6544
vn 0.0040 0.7539 -0.6569
vn 0.0021 0.7590 -0.6511
vn 0.0020 0.7589 -0.6512
vn 0.0021 0.7585 -0.6516
vn 0.0020 0.7585 -0.6517
vn 0.0044 0.7579 -0.6523
vn 0.0038 0.7587 -0.6515
vn 0.0033 0.7568 -0.6537
vn 0.0054 0.7569 -0.6536
vn 0.0020 0.7568 -0.6536
vn 0.0020 0.7590 -0.6511
vn 0.0018 0.7588 -0.6513
vn 0.0020 0.7585 -0.6516
vn 0.0019 0.7589 -0.6512
vn 0.0020 0.7584 -0.6517
vn 0.0008 0.7570 -0.6534
vn -0.0002 0.7579 -0.6523
vn -0.0011 0.7571 -0.6532
vn 0.0008 0.7580 -0.6522
vn 0.0035 0.7568 -0.6536
vn 0.0022 0.7568 -0.6536
vn 0.0022 0.7567 -0.6537
vn 0.0022 0.7567 -0.6538
vn 0.0018 0.7568 -0.6537
vn 0.0008 0.7540 -0.6569
vn 0.0027 0.7540 -0.6569
vn 0.0026 0.7538 -0.6571
vn 0.0028 0.7540 -0.6569
vn 0.0039 0.7541 -0.6568
vn 0.0024 0.7553 -0.6554
vn 0.0012 0.7554 -0.6553
vn 0.0023 0.7553 -0.6554
vn 0.0025 0.7553 -0.6553
vn 0.0036 0.7556 -0.6551
vn -0.1093 0.9095 -0.4011
vn 0.0041 0.9171 -0.3987
vn -0.2142 0.8755 -0.4331
vn -0.2424 0.7632 -0.5990
vn -0.2521 0.8199 -0.5140
vn 0.2414 0.8140 -0.5283
vn 0.2326 0.7604 -0.6064
vn 0.2076 0.8701 -0.4471
vn 0.1128 0.9063 -0.4074
vn 0.0834 0.5954 -0.7991
vn 0.0004 0.5936 -0.8048
vn 0.1621 0.6164 -0.7706
vn 0.1839 0.7212 -0.6679
vn 0.1909 0.6689 -0.7184
vn -0.0817 0.5973 -0.7978
vn -0.1579 0.6204 -0.7682
vn -0.1850 0.6735 -0.7157
vn -0.1785 0.7234 -0.6670
vn 0.1974 0.7406 -0.6423
vn -0.2024 0.7415 -0.6397
vn -0.2271 0.7373 -0.6363
vn 0.2199 0.7361 -0.6402
vn -0.1840 0.7438 -0.6425
vn 0.1816 0.7423 -0.6450
vn -0.9361 0.1142 -0.3326
vn -0.9566 0.2198 -0.1912
vn -0.7107 0.4361 -0.5520
vn -0.7034 0.5376 -0.4650
vn -0.8518 0.4601 0.2504
vn -0.6481 0.6129 0.4521
vn -0.8254 0.5434 0.1532
vn -0.5196 0.8530 0.0495
vn -0.3525 0.7239 0.5931
vn -0.2848 0.9439 0.1670
vn 0.0054 0.7684 0.6399
vn 0.0048 0.9790 0.2040
vn 0.3644 0.7278 0.5810
vn 0.2902 0.9443 0.1549
vn 0.6548 0.6183 0.4348
vn 0.5191 0.8542 0.0293
vn 0.8554 0.4655 0.2272
vn 0.8232 0.5546 0.1210
vn 0.9559 0.2931 -0.0189
vn 0.7244 0.5971 -0.3445
vn 0.9661 0.1959 -0.1684
vn 0.7426 0.5055 -0.4393
vn 0.8273 -0.0770 -0.5565
vn 0.6262 -0.2338 -0.7438
vn 0.6429 0.2707 -0.7165
vn 0.4867 0.1504 -0.8605
vn 0.3409 -0.3428 -0.8754
vn 0.2645 0.0591 -0.9626
vn -0.0045 -0.3820 -0.9242
vn -0.0029 0.0283 -0.9996
vn -0.3504 -0.3376 -0.8737
vn -0.2695 0.0652 -0.9608
vn -0.6369 -0.2265 -0.7369
vn -0.4917 0.1560 -0.8567
vn -0.8344 -0.0706 -0.5466
vn -0.6482 0.2774 -0.7091
vn -0.9566 0.2913 0.0088
vn -0.7359 0.5961 -0.3211
vn 0.9314 0.1097 -0.3471
vn 0.6988 0.4400 -0.5640
vn -0.9696 0.1960 -0.1463
vn -0.7505 0.5073 -0.4235
vn -0.7122 0.5340 -0.4555
vn -0.9619 0.2111 -0.1736
vn 0.9599 0.2064 -0.1899
vn 0.7133 0.5258 -0.4635
vn 0.9571 0.2081 -0.2018
vn 0.7358 0.5049 -0.4513
vn -0.0045 -0.3820 -0.9241
vn -0.0055 -0.6296 -0.7769
vn 0.3584 -0.5874 -0.7256
vn 0.6623 -0.4716 -0.5822
vn 0.8677 -0.3131 -0.3860
vn 0.9787 -0.1291 -0.1598
vn 0.9570 0.2081 -0.2018
vn 0.9999 -0.0100 -0.0126
vn 1.0000 -0.0051 -0.0063
vn 1.0000 0.0016 0.0019
vn 0.9559 0.2931 -0.0190
vn 0.9814 0.1206 0.1492
vn 0.8554 0.4654 0.2272
vn 0.8735 0.3057 0.3789
vn 0.6548 0.6182 0.4348
vn 0.6658 0.4685 0.5807
vn 0.3683 0.5836 0.7237
vn 0.0054 0.6278 0.7783
vn -0.3525 0.7238 0.5931
vn -0.3570 0.5868 0.7268
vn -0.6481 0.6129 0.4520
vn -0.6583 0.4728 0.5857
vn -0.8644 0.3157 0.3912
vn -0.9566 0.2913 0.0089
vn -0.9768 0.1348 0.1662
vn -0.9696 0.1959 -0.1463
vn -0.9998 0.0121 0.0145
vn -1.0000 0.0055 0.0061
vn -1.0000 0.0005 -0.0001
vn -0.9823 -0.1176 -0.1455
vn -0.8751 -0.3049 -0.3759
vn -0.6694 -0.4679 -0.5771
vn -0.3503 -0.3375 -0.8737
vn -0.3695 -0.5852 -0.7218
vn -0.9998 0.0119 0.0142
vn -1.0000 0.0054 0.0061
vn -1.0000 0.0005 -0.0003
vn -0.9815 -0.1202 -0.1487
vn -0.8734 -0.3068 -0.3783
vn -0.6679 -0.4687 -0.5781
vn -0.3684 -0.5855 -0.7221
vn -0.0054 -0.6296 -0.7769
vn 0.3580 -0.5875 -0.7257
vn 0.6603 -0.4727 -0.5836
vn 0.8661 -0.3149 -0.3883
vn 0.9781 -0.1309 -0.1619
vn 0.9999 -0.0102 -0.0128
vn 1.0000 -0.0051 -0.0062
vn 1.0000 0.0013 0.0016
vn 0.9820 0.1190 0.1470
vn 0.8743 0.3048 0.3778
vn 0.6667 0.4680 0.5800
vn 0.3694 0.5834 0.7233
vn 0.0053 0.6278 0.7783
vn -0.3585 0.5865 0.7263
vn -0.6591 0.4723 0.5852
vn -0.8650 0.3151 0.3905
vn -0.9774 0.1331 0.1641
vt 0.942589 0.290747
vt 0.931979 0.286345
vt 0.955918 0.228519
vt 0.966574 0.232970
vt 0.938178 0.286391
vt 0.960350 0.232892
vt 0.941420 0.287560
vt 0.935060 0.284924
vt 0.957096 0.231711
vt 0.963479 0.234373
vt 0.936115 0.281742
vt 0.939519 0.283158
vt 0.942928 0.284564
vt 0.946360 0.286292
vt 0.962415 0.237552
vt 0.959004 0.236122
vt 0.955586 0.234710
vt 0.952142 0.232987
vt 0.944453 0.281063
vt 0.940991 0.279607
vt 0.937513 0.278192
vt 0.933797 0.276928
vt 0.951996 0.262926
vt 0.948502 0.261472
vt 0.945008 0.260021
vt 0.941352 0.258531
vt 0.961004 0.241098
vt 0.957528 0.239672
vt 0.954063 0.238217
vt 0.950537 0.236491
vt 0.955635 0.264455
vt 0.936716 0.289916
vt 0.939952 0.290758
vt 0.944562 0.289011
vt 0.932464 0.280532
vt 0.931813 0.283723
vt 0.933831 0.288223
vt 0.961822 0.229370
vt 0.958570 0.228512
vt 0.953938 0.230257
vt 0.964718 0.231078
vt 0.966069 0.238785
vt 0.966732 0.235595
vt 0.964714 0.242383
vt 0.947973 0.282802
vt 0.968428 0.238172
vt 0.970221 0.238500
vt 0.972617 0.238787
vt 0.008039 0.276970
vt 0.967305 0.241747
vt 0.969074 0.242369
vt 0.971303 0.243114
vt 0.008011 0.281117
vt 0.945740 0.290531
vt 0.947040 0.292282
vt 0.948194 0.293885
vt 0.007849 0.335533
vt 0.942954 0.291993
vt 0.943641 0.294106
vt 0.944307 0.296031
vt 0.007826 0.339699
vt 0.939485 0.292588
vt 0.939441 0.294806
vt 0.939370 0.296875
vt 0.007813 0.344317
vt 0.935916 0.291842
vt 0.935074 0.293894
vt 0.934258 0.295761
vt 0.007815 0.349215
vt 0.932862 0.289849
vt 0.931337 0.291446
vt 0.929907 0.292882
vt 0.007812 0.354132
vt 0.930843 0.286964
vt 0.928879 0.287953
vt 0.927028 0.288855
vt 0.007821 0.358811
vt 0.929910 0.283960
vt 0.927791 0.284270
vt 0.925760 0.284579
vt 0.007838 0.363010
vt 0.930062 0.281157
vt 0.927938 0.280782
vt 0.925876 0.280457
vt 0.007834 0.366814
vt 0.931426 0.276720
vt 0.929219 0.276579
vt 0.927062 0.276121
vt 0.007908 0.370976
vt 0.952793 0.228793
vt 0.951747 0.227359
vt 0.950418 0.225468
vt 0.008051 0.425413
vt 0.955574 0.227336
vt 0.955006 0.225645
vt 0.954337 0.223398
vt 0.008054 0.429556
vt 0.959040 0.226754
vt 0.959104 0.224983
vt 0.959201 0.222674
vt 0.008094 0.434141
vt 0.962597 0.227520
vt 0.963287 0.225875
vt 0.964206 0.223746
vt 0.008107 0.438970
vt 0.008096 0.259766
vt 0.965642 0.229509
vt 0.966867 0.228218
vt 0.968437 0.226564
vt 0.008092 0.264566
vt 0.967653 0.232381
vt 0.969257 0.231561
vt 0.971342 0.230470
vt 0.008058 0.269132
vt 0.968575 0.235379
vt 0.970340 0.235122
vt 0.972656 0.234698
vt 0.008062 0.273227
vt 0.947613 0.288434
vt 0.949378 0.289691
vt 0.951082 0.290957
vt 0.007847 0.331769
vt 0.950922 0.230885
vt 0.949420 0.229864
vt 0.947540 0.228385
vt 0.008024 0.421639
vt 0.949805 0.284343
vt 0.951486 0.285815
vt 0.953329 0.287023
vt 0.007921 0.327619
vt 0.939303 0.257749
vt 0.937445 0.257039
vt 0.935230 0.256121
vt 0.007907 0.392111
vt 0.957652 0.265355
vt 0.959486 0.266171
vt 0.961613 0.267053
vt 0.007927 0.306483
vt 0.948748 0.234986
vt 0.947351 0.233645
vt 0.945352 0.232334
vt 0.008059 0.417476
vt 0.046163 0.433836
vt 0.046138 0.429356
vt 0.046040 0.425244
vt 0.046022 0.421415
vt 0.046002 0.417297
vt 0.045912 0.391978
vt 0.045843 0.370937
vt 0.045837 0.366794
vt 0.045832 0.363009
vt 0.045904 0.358824
vt 0.045900 0.354177
vt 0.045896 0.349211
vt 0.045899 0.344311
vt 0.045903 0.339719
vt 0.045835 0.335582
vt 0.045842 0.331820
vt 0.045850 0.327707
vt 0.045920 0.306620
vt 0.046006 0.281292
vt 0.046024 0.277181
vt 0.046119 0.273363
vt 0.046130 0.269266
vt 0.046154 0.264813
vt 0.046179 0.260000
vt 0.046192 0.438745
vt 0.009152 0.327623
vt 0.009183 0.306488
vt 0.009290 0.281123
vt 0.009324 0.276978
vt 0.009351 0.273232
vt 0.009350 0.269136
vt 0.009386 0.264574
vt 0.009404 0.438963
vt 0.009392 0.259774
vt 0.009389 0.434131
vt 0.009348 0.429549
vt 0.009342 0.425407
vt 0.009311 0.421632
vt 0.009339 0.417469
vt 0.009167 0.392106
vt 0.009140 0.370975
vt 0.009063 0.366813
vt 0.009064 0.363010
vt 0.009045 0.358811
vt 0.009035 0.354133
vt 0.009036 0.349215
vt 0.009035 0.344317
vt 0.009051 0.339699
vt 0.009076 0.335534
vt 0.009076 0.331771
s 0
usemtl mat_create_button_L
f 7/7/1 5/5/1 13/13/2
s 1
f 5/5/3 12/12/4 13/13/5
f 7/7/6 13/13/5 34/34/7
f 13/13/5 14/14/8 34/34/7
f 33/33/9 7/7/6 1/1/10
f 7/7/6 34/34/7 1/1/10
f 7/7/6 33/33/9 5/5/3
f 33/33/9 32/32/11 5/5/3
f 5/5/3 8/8/12 12/12/4
f 8/8/12 11/11/13 12/12/4
f 8/8/12 5/5/3 37/37/14
f 5/5/3 32/32/11 37/37/14
f 36/36/15 8/8/12 2/2/16
f 8/8/12 37/37/14 2/2/16
f 8/8/12 36/36/15 11/11/13
f 36/36/15 35/35/17 11/11/13
f 9/9/18 6/6/19 17/17/20
f 6/6/19 16/16/21 17/17/20
f 9/9/18 17/17/20 40/40/22
f 17/17/20 18/18/23 40/40/22
f 39/39/24 9/9/18 3/3/25
f 9/9/18 40/40/22 3/3/25
f 9/9/18 39/39/24 6/6/19
f 39/39/24 38/38/26 6/6/19
s 0
f 6/6/27 10/10/28 16/16/29
s 1
f 10/10/30 15/15/31 16/16/21
f 41/41/32 10/10/30 38/38/26
f 10/10/30 6/6/19 38/38/26
f 43/43/33 10/10/30 4/4/34
f 10/10/30 41/41/32 4/4/34
f 10/10/30 43/43/33 15/15/31
f 43/43/33 42/42/35 15/15/31
f 18/18/23 17/17/20 30/30/36
f 17/17/20 29/29/37 30/30/36
f 17/17/20 16/16/21 29/29/37
f 16/16/21 28/28/38 29/29/37
f 16/16/21 15/15/31 28/28/38
f 15/15/31 27/27/39 28/28/38
f 15/15/31 42/42/35 27/27/39
f 42/42/35 44/44/40 27/27/39
f 45/45/41 14/14/8 19/19/13
f 14/14/8 13/13/5 19/19/13
f 19/19/13 13/13/5 20/20/42
f 13/13/5 12/12/4 20/20/42
s 0
f 20/20/43 12/12/43 21/21/43
f 12/12/44 11/11/44 21/21/44
s 1
f 21/21/12 11/11/13 22/22/45
f 11/11/13 35/35/17 22/22/45
f 23/23/46 31/31/47 19/19/13
f 31/31/47 45/45/41 19/19/13
f 24/24/48 23/23/46 20/20/42
f 23/23/46 19/19/13 20/20/42
f 25/25/49 24/24/48 21/21/12
f 24/24/48 20/20/42 21/21/12
f 26/26/50 25/25/49 22/22/45
f 25/25/49 21/21/12 22/22/45
f 27/27/39 44/44/40 23/23/46
f 44/44/40 31/31/47 23/23/46
f 28/28/38 27/27/39 24/24/48
f 27/27/39 23/23/46 24/24/48
f 29/29/37 28/28/38 25/25/49
f 28/28/38 24/24/48 25/25/49
f 30/30/36 29/29/37 26/26/50
f 29/29/37 25/25/49 26/26/50
f 33/33/9 62/62/51 32/32/11
f 62/62/51 66/66/52 32/32/11
f 1/1/10 58/58/53 33/33/9
f 58/58/53 62/62/51 33/33/9
f 14/14/8 119/119/54 34/34/7
f 119/119/54 54/54/55 34/34/7
f 34/34/7 54/54/55 1/1/10
f 54/54/55 58/58/53 1/1/10
f 36/36/15 78/78/56 35/35/17
f 78/78/56 82/82/57 35/35/17
f 2/2/16 74/74/58 36/36/15
f 74/74/58 78/78/56 36/36/15
f 32/32/11 66/66/52 37/37/14
f 66/66/52 70/70/59 37/37/14
f 37/37/14 70/70/59 2/2/16
f 70/70/59 74/74/58 2/2/16
f 39/39/24 98/98/60 38/38/26
f 98/98/60 102/102/61 38/38/26
f 3/3/25 94/94/62 39/39/24
f 94/94/62 98/98/60 39/39/24
f 18/18/23 123/123/63 40/40/22
f 123/123/63 90/90/64 40/40/22
f 40/40/22 90/90/64 3/3/25
f 90/90/64 94/94/62 3/3/25
f 38/38/26 102/102/61 41/41/32
f 102/102/61 107/107/65 41/41/32
f 41/41/32 107/107/65 4/4/34
f 107/107/65 111/111/66 4/4/34
f 43/43/33 115/115/67 42/42/35
f 115/115/67 46/46/68 42/42/35
f 4/4/34 111/111/66 43/43/33
f 111/111/66 115/115/67 43/43/33
f 30/30/36 139/139/69 18/18/23
f 139/139/69 123/123/63 18/18/23
f 42/42/35 46/46/68 44/44/40
f 46/46/68 50/50/70 44/44/40
f 45/45/41 127/127/71 14/14/8
f 127/127/71 119/119/54 14/14/8
f 35/35/17 82/82/57 22/22/45
f 82/82/57 86/86/72 22/22/45
f 45/45/41 31/31/47 127/127/71
f 31/31/47 135/135/73 127/127/71
f 86/86/72 131/131/74 22/22/45
f 131/131/74 26/26/50 22/22/45
f 31/31/47 44/44/40 135/135/73
f 44/44/40 50/50/70 135/135/73
f 131/131/74 139/139/69 26/26/50
f 139/139/69 30/30/36 26/26/50
f 48/48/75 52/52/76 47/47/77
f 52/52/76 51/51/78 47/47/77
f 47/47/77 51/51/78 46/46/68
f 51/51/78 50/50/70 46/46/68
f 56/56/79 60/60/80 55/55/81
f 60/60/80 59/59/82 55/55/81
f 55/55/81 59/59/82 54/54/55
f 59/59/82 58/58/53 54/54/55
f 60/60/80 64/64/83 59/59/82
f 64/64/83 63/63/84 59/59/82
f 59/59/82 63/63/84 58/58/53
f 63/63/84 62/62/51 58/58/53
f 64/64/83 68/68/85 63/63/84
f 68/68/85 67/67/86 63/63/84
f 63/63/84 67/67/86 62/62/51
f 67/67/86 66/66/52 62/62/51
f 68/68/85 72/72/87 67/67/86
f 72/72/87 71/71/88 67/67/86
f 67/67/86 71/71/88 66/66/52
f 71/71/88 70/70/59 66/66/52
f 72/72/87 76/76/89 71/71/88
f 76/76/89 75/75/90 71/71/88
f 71/71/88 75/75/90 70/70/59
f 75/75/90 74/74/58 70/70/59
f 76/76/89 80/80/91 75/75/90
f 80/80/91 79/79/92 75/75/90
f 75/75/90 79/79/92 74/74/58
f 79/79/92 78/78/56 74/74/58
f 80/80/91 84/84/93 79/79/92
f 84/84/93 83/83/94 79/79/92
f 79/79/92 83/83/94 78/78/56
f 83/83/94 82/82/57 78/78/56
f 84/84/93 88/88/95 83/83/94
f 88/88/95 87/87/96 83/83/94
f 83/83/94 87/87/96 82/82/57
f 87/87/96 86/86/72 82/82/57
f 92/92/97 96/96/98 91/91/99
f 96/96/98 95/95/100 91/91/99
f 91/91/99 95/95/100 90/90/64
f 95/95/100 94/94/62 90/90/64
f 96/96/98 100/100/101 95/95/100
f 100/100/101 99/99/102 95/95/100
f 95/95/100 99/99/102 94/94/62
f 99/99/102 98/98/60 94/94/62
f 100/100/101 104/104/103 99/99/102
f 104/104/103 103/103/104 99/99/102
f 99/99/102 103/103/104 98/98/60
f 103/103/104 102/102/61 98/98/60
f 104/104/103 109/109/105 103/103/104
f 109/109/105 108/108/106 103/103/104
f 103/103/104 108/108/106 102/102/61
f 108/108/106 107/107/65 102/102/61
f 109/109/105 113/113/107 108/108/106
f 113/113/107 112/112/108 108/108/106
f 108/108/106 112/112/108 107/107/65
f 112/112/108 111/111/66 107/107/65
f 113/113/107 117/117/109 112/112/108
f 117/117/109 116/116/110 112/112/108
f 112/112/108 116/116/110 111/111/66
f 116/116/110 115/115/67 111/111/66
f 117/117/109 48/48/75 116/116/110
f 48/48/75 47/47/77 116/116/110
f 116/116/110 47/47/77 115/115/67
f 47/47/77 46/46/68 115/115/67
f 121/121/111 56/56/79 120/120/112
f 56/56/79 55/55/81 120/120/112
f 120/120/112 55/55/81 119/119/54
f 55/55/81 54/54/55 119/119/54
f 125/125/113 92/92/97 124/124/114
f 92/92/97 91/91/99 124/124/114
f 124/124/114 91/91/99 123/123/63
f 91/91/99 90/90/64 123/123/63
f 129/129/115 121/121/111 128/128/116
f 121/121/111 120/120/112 128/128/116
f 128/128/116 120/120/112 127/127/71
f 120/120/112 119/119/54 127/127/71
f 136/136/117 137/137/118 128/128/116
f 137/137/118 129/129/115 128/128/116
f 135/135/73 136/136/117 127/127/71
f 136/136/117 128/128/116 127/127/71
f 88/88/95 133/133/119 87/87/96
f 133/133/119 132/132/120 87/87/96
f 86/86/72 87/87/96 131/131/74
f 87/87/96 132/132/120 131/131/74
f 51/51/78 52/52/76 136/136/117
f 52/52/76 137/137/118 136/136/117
f 50/50/70 51/51/78 135/135/73
f 51/51/78 136/136/117 135/135/73
f 133/133/119 141/141/121 132/132/120
f 141/141/121 140/140/122 132/132/120
f 131/131/74 132/132/120 139/139/69
f 132/132/120 140/140/122 139/139/69
f 141/141/121 125/125/113 140/140/122
f 125/125/113 124/124/114 140/140/122
f 140/140/122 124/124/114 139/139/69
f 124/124/114 123/123/63 139/139/69
f 105/105/123 101/101/101 175/175/124
f 101/101/101 177/177/125 175/175/124
f 101/101/101 97/97/98 177/177/125
f 97/97/98 178/178/126 177/177/125
f 97/97/98 93/93/97 178/178/126
f 93/93/97 179/179/127 178/178/126
f 93/93/97 126/126/113 179/179/127
f 126/126/113 180/180/128 179/179/127
f 126/126/113 142/142/129 180/180/128
f 142/142/129 181/181/130 180/180/128
f 142/142/129 134/134/119 181/181/130
f 134/134/119 182/182/131 181/181/130
f 134/134/119 89/89/95 182/182/131
f 89/89/95 183/183/132 182/182/131
f 89/89/95 85/85/133 183/183/132
f 85/85/133 184/184/134 183/183/132
f 85/85/133 81/81/135 184/184/134
f 81/81/135 185/185/136 184/184/134
f 81/81/135 77/77/137 185/185/136
f 77/77/137 186/186/138 185/185/136
f 77/77/137 73/73/87 186/186/138
f 73/73/87 187/187/139 186/186/138
f 73/73/87 69/69/85 187/187/139
f 69/69/85 188/188/140 187/187/139
f 69/69/85 65/65/141 188/188/140
f 65/65/141 189/189/142 188/188/140
f 65/65/141 61/61/143 189/189/142
f 61/61/143 190/190/144 189/189/142
f 61/61/143 57/57/79 190/190/144
f 57/57/79 191/191/145 190/190/144
f 57/57/79 122/122/146 191/191/145
f 122/122/146 192/192/147 191/191/145
f 122/122/146 130/130/148 192/192/147
f 130/130/148 168/168/149 192/192/147
f 130/130/148 138/138/118 168/168/149
f 138/138/118 169/169/150 168/168/149
f 138/138/118 53/53/76 169/169/150
f 53/53/76 170/170/151 169/169/150
f 53/53/76 49/49/75 170/170/151
f 49/49/75 171/171/152 170/170/151
f 49/49/75 118/118/109 171/171/152
f 118/118/109 172/172/153 171/171/152
f 118/118/109 114/114/107 172/172/153
f 114/114/107 173/173/154 172/172/153
f 114/114/107 110/110/155 173/173/154
f 110/110/155 174/174/156 173/173/154
f 110/110/155 106/106/123 174/174/156
f 106/106/123 176/176/124 174/174/156
f 168/168/149 169/169/150 159/159/157
f 169/169/150 160/160/158 159/159/157
f 169/169/150 170/170/151 160/160/158
f 170/170/151 161/161/159 160/160/158
f 170/170/151 171/171/152 161/161/159
f 171/171/152 162/162/160 161/161/159
f 171/171/152 172/172/153 162/162/160
f 172/172/153 163/163/161 162/162/160
f 172/172/153 173/173/154 163/163/161
f 173/173/154 164/164/162 163/163/161
f 173/173/154 174/174/156 164/164/162
f 174/174/156 165/165/163 164/164/162
f 174/174/156 176/176/124 165/165/163
f 176/176/124 166/166/164 165/165/163
f 175/175/124 177/177/125 167/167/124
f 177/177/125 143/143/165 167/167/124
f 177/177/125 178/178/126 143/143/165
f 178/178/126 144/144/166 143/143/165
f 178/178/126 179/179/127 144/144/166
f 179/179/127 145/145/167 144/144/166
f 179/179/127 180/180/128 145/145/167
f 180/180/128 146/146/168 145/145/167
f 180/180/128 181/181/130 146/146/168
f 181/181/130 147/147/169 146/146/168
f 181/181/130 182/182/131 147/147/169
f 182/182/131 148/148/170 147/147/169
f 182/182/131 183/183/132 148/148/170
f 183/183/132 149/149/171 148/148/170
f 183/183/132 184/184/134 149/149/171
f 184/184/134 150/150/172 149/149/171
f 184/184/134 185/185/136 150/150/172
f 185/185/136 151/151/173 150/150/172
f 185/185/136 186/186/138 151/151/173
f 186/186/138 152/152/174 151/151/173
f 186/186/138 187/187/139 152/152/174
f 187/187/139 153/153/175 152/152/174
f 187/187/139 188/188/140 153/153/175
f 188/188/140 154/154/176 153/153/175
f 188/188/140 189/189/142 154/154/176
f 189/189/142 155/155/177 154/154/176
f 189/189/142 190/190/144 155/155/177
f 190/190/144 156/156/178 155/155/177
f 190/190/144 191/191/145 156/156/178
f 191/191/145 157/157/179 156/156/178
f 191/191/145 192/192/147 157/157/179
f 192/192/147 158/158/180 157/157/179
f 192/192/147 168/168/149 158/158/180
f 168/168/149 159/159/157 158/158/180
