# Blender 3.5.0
# www.blender.org
mtllib playstation_vr2_sense_right_option.mtl
o mesh_option_button_R
v 0.020024 -0.004898 0.048816
v 0.018559 -0.004908 0.048811
v 0.018619 -0.010026 0.042904
v 0.020084 -0.010017 0.042911
v 0.019294 -0.005090 0.048599
v 0.019349 -0.009836 0.043124
v 0.019730 -0.005102 0.048583
v 0.018858 -0.005108 0.048580
v 0.018913 -0.009824 0.043139
v 0.019785 -0.009819 0.043143
v 0.018835 -0.005385 0.048263
v 0.019297 -0.005379 0.048268
v 0.019759 -0.005378 0.048266
v 0.020239 -0.005359 0.048286
v 0.019807 -0.009544 0.043463
v 0.019346 -0.009550 0.043457
v 0.018884 -0.009550 0.043458
v 0.018404 -0.009568 0.043439
v 0.019766 -0.005694 0.047903
v 0.019301 -0.005697 0.047902
v 0.018836 -0.005701 0.047900
v 0.018350 -0.005690 0.047914
v 0.019785 -0.007305 0.046054
v 0.019319 -0.007308 0.046052
v 0.018854 -0.007311 0.046050
v 0.018369 -0.007314 0.046050
v 0.019807 -0.009230 0.043828
v 0.019342 -0.009234 0.043825
v 0.018877 -0.009236 0.043824
v 0.018392 -0.009254 0.043805
v 0.020270 -0.007301 0.046058
v 0.019290 -0.004775 0.048961
v 0.019714 -0.004812 0.048917
v 0.020168 -0.005094 0.048591
v 0.018355 -0.005373 0.048278
v 0.018420 -0.005106 0.048584
v 0.018867 -0.004818 0.048914
v 0.019353 -0.010148 0.042760
v 0.018929 -0.010112 0.042804
v 0.018475 -0.009832 0.043132
v 0.019776 -0.010106 0.042808
v 0.020288 -0.009556 0.043447
v 0.020223 -0.009820 0.043140
v 0.020293 -0.009241 0.043813
v 0.020251 -0.005677 0.047922
v 0.020538 -0.009670 0.043315
v 0.020752 -0.009750 0.043341
v 0.020889 -0.009969 0.043494
v 0.020889 -0.009969 0.043494
v 0.020562 -0.009364 0.043670
v 0.020780 -0.009425 0.043719
v 0.020915 -0.009624 0.043884
v 0.020915 -0.009624 0.043884
v 0.020382 -0.005021 0.048677
v 0.020596 -0.005043 0.048849
v 0.020663 -0.005201 0.049034
v 0.020663 -0.005201 0.049034
v 0.020130 -0.004817 0.048912
v 0.020295 -0.004794 0.049135
v 0.020349 -0.004943 0.049335
v 0.020349 -0.004943 0.049335
v 0.019749 -0.004659 0.049095
v 0.019842 -0.004609 0.049355
v 0.019866 -0.004751 0.049561
v 0.019866 -0.004751 0.049561
v 0.019288 -0.004605 0.049159
v 0.019287 -0.004544 0.049430
v 0.019285 -0.004679 0.049646
v 0.019285 -0.004679 0.049646
v 0.018828 -0.004666 0.049092
v 0.018735 -0.004615 0.049348
v 0.018702 -0.004753 0.049557
v 0.018702 -0.004753 0.049557
v 0.018452 -0.004829 0.048905
v 0.018282 -0.004801 0.049121
v 0.018226 -0.004950 0.049325
v 0.018226 -0.004950 0.049325
v 0.018204 -0.005036 0.048668
v 0.017989 -0.005053 0.048831
v 0.017910 -0.005209 0.049020
v 0.017910 -0.005209 0.049020
v 0.018099 -0.005258 0.048412
v 0.017853 -0.005316 0.048511
v 0.017754 -0.005496 0.048679
v 0.017754 -0.005496 0.048679
v 0.018067 -0.005640 0.047975
v 0.017829 -0.005670 0.048101
v 0.017724 -0.005837 0.048289
v 0.017724 -0.005837 0.048289
v 0.018268 -0.009905 0.043051
v 0.018089 -0.010035 0.043030
v 0.017973 -0.010272 0.043147
v 0.017973 -0.010272 0.043147
v 0.018519 -0.010105 0.042816
v 0.018378 -0.010266 0.042752
v 0.018290 -0.010530 0.042842
v 0.018290 -0.010530 0.042842
v 0.018897 -0.010261 0.042634
v 0.018823 -0.010450 0.042543
v 0.018774 -0.010724 0.042615
v 0.018774 -0.010724 0.042615
v 0.019355 -0.010313 0.042570
v 0.019356 -0.010514 0.042469
v 0.019358 -0.010797 0.042531
v 0.019358 -0.010797 0.042531
v 0.019358 -0.010797 0.042531
v 0.019810 -0.010254 0.042638
v 0.019888 -0.010443 0.042547
v 0.019941 -0.010719 0.042618
v 0.019941 -0.010719 0.042618
v 0.020185 -0.010094 0.042823
v 0.020327 -0.010258 0.042756
v 0.020419 -0.010521 0.042850
v 0.020419 -0.010521 0.042850
v 0.020431 -0.009891 0.043060
v 0.020616 -0.010016 0.043040
v 0.020731 -0.010259 0.043160
v 0.020731 -0.010259 0.043160
v 0.020492 -0.005241 0.048422
v 0.020738 -0.005300 0.048528
v 0.020829 -0.005483 0.048699
v 0.020829 -0.005483 0.048699
v 0.018158 -0.009685 0.043304
v 0.017945 -0.009766 0.043329
v 0.017808 -0.009984 0.043479
v 0.017808 -0.009984 0.043479
v 0.020534 -0.005623 0.047985
v 0.020772 -0.005655 0.048118
v 0.020869 -0.005823 0.048309
v 0.020869 -0.005823 0.048309
v 0.018099 -0.007311 0.046054
v 0.017870 -0.007375 0.046116
v 0.017745 -0.007580 0.046291
v 0.017745 -0.007580 0.046291
v 0.020542 -0.007295 0.046065
v 0.020773 -0.007359 0.046131
v 0.020890 -0.007554 0.046301
v 0.020890 -0.007554 0.046301
v 0.018116 -0.009309 0.043743
v 0.017906 -0.009421 0.043733
v 0.017772 -0.009645 0.043871
v 0.017772 -0.009645 0.043871
v 0.018759 -0.014290 0.045507
v 0.018290 -0.014104 0.045737
v 0.017977 -0.013843 0.046042
v 0.017804 -0.013565 0.046384
v 0.017771 -0.013241 0.046783
v 0.017745 -0.011244 0.049251
v 0.017724 -0.009584 0.051303
v 0.017749 -0.009259 0.051705
v 0.017907 -0.008984 0.052047
v 0.018214 -0.008735 0.052371
v 0.018698 -0.008544 0.052609
v 0.019285 -0.008468 0.052703
v 0.019877 -0.008539 0.052616
v 0.020350 -0.008725 0.052385
v 0.020664 -0.008970 0.052066
v 0.020836 -0.009243 0.051728
v 0.020870 -0.009565 0.051328
v 0.020892 -0.011229 0.049272
v 0.020917 -0.013228 0.046803
v 0.020892 -0.013552 0.046403
v 0.020727 -0.013845 0.046059
v 0.020414 -0.014099 0.045743
v 0.019943 -0.014286 0.045514
v 0.019359 -0.014362 0.045419
v 0.019359 -0.014362 0.045419
v 0.020869 -0.005944 0.048407
v 0.020890 -0.007676 0.046399
v 0.020915 -0.009745 0.043983
v 0.020889 -0.010090 0.043593
v 0.020731 -0.010380 0.043258
v 0.020419 -0.010642 0.042948
v 0.019941 -0.010841 0.042716
v 0.019358 -0.010918 0.042630
v 0.019358 -0.010918 0.042630
v 0.018773 -0.010846 0.042714
v 0.018290 -0.010652 0.042941
v 0.017973 -0.010393 0.043245
v 0.017808 -0.010105 0.043578
v 0.017772 -0.009767 0.043970
v 0.017745 -0.007702 0.046389
v 0.017724 -0.005959 0.048387
v 0.017754 -0.005618 0.048777
v 0.017910 -0.005331 0.049118
v 0.018226 -0.005072 0.049423
v 0.018702 -0.004875 0.049655
v 0.019285 -0.004800 0.049744
v 0.019866 -0.004873 0.049659
v 0.020349 -0.005065 0.049433
v 0.020663 -0.005323 0.049132
v 0.020830 -0.005604 0.048797
vn -0.0028 0.7538 -0.6571
vn -0.0029 0.7541 -0.6568
vn -0.0027 0.7538 -0.6571
vn -0.0027 0.7541 -0.6568
vn -0.0007 0.7540 -0.6569
vn -0.0000 0.7550 -0.6557
vn 0.0005 0.7564 -0.6541
vn -0.0018 0.7565 -0.6540
vn -0.0029 0.7565 -0.6540
vn -0.0026 0.7539 -0.6570
vn -0.0027 0.7542 -0.6567
vn -0.0036 0.7563 -0.6542
vn -0.0052 0.7561 -0.6544
vn -0.0047 0.7549 -0.6558
vn -0.0040 0.7540 -0.6569
vn -0.0020 0.7584 -0.6517
vn -0.0019 0.7591 -0.6510
vn -0.0021 0.7585 -0.6516
vn -0.0021 0.7590 -0.6511
vn -0.0037 0.7584 -0.6518
vn -0.0045 0.7579 -0.6523
vn -0.0055 0.7569 -0.6535
vn -0.0032 0.7568 -0.6536
vn -0.0019 0.7568 -0.6536
vn -0.0019 0.7583 -0.6519
vn -0.0020 0.7589 -0.6512
vn -0.0021 0.7586 -0.6516
vn -0.0018 0.7588 -0.6513
vn -0.0019 0.7590 -0.6511
vn -0.0019 0.7586 -0.6516
vn -0.0009 0.7570 -0.6534
vn 0.0010 0.7571 -0.6533
vn 0.0001 0.7580 -0.6523
vn -0.0012 0.7582 -0.6521
vn -0.0023 0.7568 -0.6536
vn -0.0035 0.7568 -0.6537
vn -0.0022 0.7567 -0.6537
vn -0.0022 0.7568 -0.6537
vn -0.0019 0.7569 -0.6536
vn -0.0024 0.7542 -0.6566
vn -0.0009 0.7540 -0.6568
vn -0.0027 0.7540 -0.6569
vn -0.0026 0.7542 -0.6567
vn -0.0038 0.7541 -0.6568
vn -0.0011 0.7553 -0.6553
vn -0.0023 0.7555 -0.6552
vn -0.0025 0.7553 -0.6554
vn -0.0025 0.7553 -0.6553
vn -0.0036 0.7553 -0.6553
vn -0.0041 0.9171 -0.3987
vn 0.1093 0.9095 -0.4010
vn 0.2141 0.8756 -0.4330
vn 0.2521 0.8200 -0.5139
vn 0.2423 0.7632 -0.5990
vn -0.2326 0.7604 -0.6064
vn -0.2415 0.8140 -0.5283
vn -0.2076 0.8701 -0.4471
vn -0.1128 0.9063 -0.4073
vn -0.0004 0.5937 -0.8047
vn -0.0833 0.5954 -0.7991
vn -0.1620 0.6165 -0.7705
vn -0.1908 0.6690 -0.7183
vn -0.1840 0.7212 -0.6679
vn 0.0816 0.5973 -0.7978
vn 0.1579 0.6204 -0.7682
vn 0.1785 0.7234 -0.6670
vn 0.1850 0.6735 -0.7156
vn -0.1974 0.7406 -0.6423
vn 0.2024 0.7415 -0.6397
vn 0.2271 0.7372 -0.6363
vn -0.2198 0.7361 -0.6402
vn 0.1840 0.7438 -0.6426
vn -0.1814 0.7423 -0.6450
vn 0.7034 0.5376 -0.4650
vn 0.9566 0.2199 -0.1913
vn 0.7108 0.4360 -0.5520
vn 0.9361 0.1143 -0.3326
vn 0.5196 0.8530 0.0497
vn 0.6482 0.6128 0.4521
vn 0.6816 0.7239 -0.1070
vn 0.8518 0.4600 0.2506
vn 0.2847 0.9440 0.1670
vn 0.3524 0.7239 0.5931
vn -0.0048 0.9790 0.2040
vn -0.0055 0.7684 0.6399
vn -0.2902 0.9443 0.1551
vn -0.3643 0.7279 0.5809
vn -0.5191 0.8542 0.0294
vn -0.6547 0.6183 0.4348
vn -0.6750 0.7256 -0.1338
vn -0.8554 0.4654 0.2273
vn -0.7245 0.5971 -0.3444
vn -0.9559 0.2931 -0.0189
vn -0.7426 0.5055 -0.4393
vn -0.9661 0.1959 -0.1684
vn -0.4868 0.1504 -0.8605
vn -0.6262 -0.2336 -0.7439
vn -0.6429 0.2707 -0.7165
vn -0.8273 -0.0769 -0.5565
vn -0.2644 0.0592 -0.9626
vn -0.3409 -0.3426 -0.8755
vn 0.0039 0.0284 -0.9996
vn 0.0046 -0.3820 -0.9242
vn 0.2694 0.0653 -0.9608
vn 0.3503 -0.3375 -0.8737
vn 0.4916 0.1562 -0.8567
vn 0.6368 -0.2264 -0.7370
vn 0.6483 0.2775 -0.7091
vn 0.8344 -0.0704 -0.5466
vn 0.7359 0.5961 -0.3211
vn 0.9566 0.2912 0.0090
vn -0.6988 0.4400 -0.5640
vn -0.9314 0.1096 -0.3471
vn 0.7505 0.5073 -0.4235
vn 0.9696 0.1960 -0.1463
vn 0.9619 0.2111 -0.1736
vn 0.7123 0.5340 -0.4555
vn -0.7133 0.5260 -0.4631
vn -0.9599 0.2064 -0.1899
vn -0.7358 0.5049 -0.4513
vn -0.9571 0.2081 -0.2018
vn -0.3584 -0.5874 -0.7256
vn 0.0055 -0.6296 -0.7769
vn 0.0046 -0.3819 -0.9242
vn -0.6623 -0.4716 -0.5822
vn -0.8677 -0.3131 -0.3860
vn -0.9787 -0.1291 -0.1598
vn -0.9314 0.1096 -0.3472
vn -0.9999 -0.0100 -0.0126
vn -1.0000 -0.0052 -0.0063
vn -0.9599 0.2063 -0.1899
vn -1.0000 0.0016 0.0019
vn -0.9814 0.1206 0.1492
vn -0.8736 0.3056 0.3788
vn -0.8554 0.4654 0.2272
vn -0.6658 0.4685 0.5807
vn -0.6547 0.6183 0.4349
vn -0.3683 0.5836 0.7237
vn -0.0055 0.6278 0.7783
vn 0.3569 0.5868 0.7268
vn 0.6584 0.4728 0.5857
vn 0.8645 0.3157 0.3912
vn 0.9768 0.1348 0.1662
vn 0.9566 0.2913 0.0090
vn 0.9998 0.0121 0.0145
vn 0.9696 0.1959 -0.1463
vn 1.0000 0.0055 0.0061
vn 1.0000 0.0006 -0.0000
vn 0.9566 0.2198 -0.1913
vn 0.9823 -0.1176 -0.1455
vn 0.8750 -0.3049 -0.3760
vn 0.6693 -0.4679 -0.5771
vn 0.3696 -0.5852 -0.7218
vn 0.0056 -0.6296 -0.7769
vn 1.0000 0.0054 0.0061
vn 0.9998 0.0118 0.0143
vn 1.0000 0.0004 -0.0003
vn 0.9815 -0.1202 -0.1487
vn 0.8733 -0.3068 -0.3784
vn 0.6679 -0.4687 -0.5781
vn 0.3685 -0.5854 -0.7221
vn -0.3580 -0.5875 -0.7257
vn -0.6603 -0.4727 -0.5836
vn -0.8661 -0.3149 -0.3882
vn -0.9781 -0.1309 -0.1619
vn -0.9999 -0.0102 -0.0128
vn -1.0000 -0.0051 -0.0062
vn -1.0000 0.0013 0.0016
vn -0.9820 0.1189 0.1470
vn -0.8743 0.3048 0.3778
vn -0.6667 0.4680 0.5801
vn -0.3694 0.5834 0.7234
vn 0.3584 0.5865 0.7263
vn 0.6592 0.4723 0.5851
vn 0.8650 0.3151 0.3904
vn 0.9774 0.1331 0.1641
vt 0.507045 0.403044
vt 0.511788 0.404480
vt 0.519630 0.378644
vt 0.514859 0.377212
vt 0.509708 0.402798
vt 0.516956 0.378889
vt 0.508307 0.402301
vt 0.511149 0.403163
vt 0.518364 0.379386
vt 0.515507 0.378527
vt 0.511669 0.401813
vt 0.510146 0.401353
vt 0.508624 0.400889
vt 0.507007 0.400526
vt 0.514992 0.379878
vt 0.516521 0.380335
vt 0.518047 0.380799
vt 0.519667 0.381168
vt 0.509073 0.399304
vt 0.510627 0.399766
vt 0.512174 0.400246
vt 0.513759 0.400842
vt 0.511522 0.391192
vt 0.513085 0.391663
vt 0.514648 0.392135
vt 0.516274 0.392639
vt 0.514492 0.381447
vt 0.516041 0.381923
vt 0.517595 0.382386
vt 0.519243 0.382775
vt 0.509890 0.390705
vt 0.509231 0.404374
vt 0.507921 0.403769
vt 0.506862 0.401925
vt 0.513217 0.402408
vt 0.512561 0.403651
vt 0.510656 0.404599
vt 0.517429 0.377312
vt 0.518748 0.377916
vt 0.519815 0.379766
vt 0.515995 0.377089
vt 0.513436 0.379290
vt 0.514088 0.378044
vt 0.512903 0.380860
vt 0.507424 0.398921
vt 0.512817 0.378440
vt 0.512129 0.378058
vt 0.511252 0.377499
vt 0.232280 0.502539
vt 0.512213 0.379939
vt 0.511453 0.379662
vt 0.510506 0.379301
vt 0.232292 0.504328
vt 0.506053 0.402109
vt 0.505141 0.402338
vt 0.504317 0.402557
vt 0.232361 0.527803
vt 0.506582 0.403359
vt 0.505775 0.403876
vt 0.505026 0.404336
vt 0.232371 0.529600
vt 0.507576 0.404507
vt 0.506984 0.405259
vt 0.506441 0.405968
vt 0.232377 0.531593
vt 0.508970 0.405235
vt 0.508690 0.406150
vt 0.508451 0.406996
vt 0.232376 0.533706
vt 0.510535 0.405406
vt 0.510606 0.406356
vt 0.510690 0.407227
vt 0.232377 0.535827
vt 0.511997 0.404997
vt 0.512382 0.405864
vt 0.512752 0.406672
vt 0.232373 0.537846
vt 0.513131 0.404251
vt 0.513752 0.404934
vt 0.514345 0.405593
vt 0.232366 0.539657
vt 0.513847 0.403274
vt 0.514658 0.403730
vt 0.515434 0.404186
vt 0.232368 0.541298
vt 0.514607 0.401421
vt 0.515381 0.401978
vt 0.516226 0.402416
vt 0.232336 0.543094
vt 0.520598 0.379591
vt 0.521339 0.379399
vt 0.522300 0.379132
vt 0.232274 0.566578
vt 0.520069 0.378344
vt 0.520721 0.377936
vt 0.521559 0.377369
vt 0.232273 0.568365
vt 0.519073 0.377201
vt 0.519536 0.376593
vt 0.520135 0.375796
vt 0.232256 0.570343
vt 0.517677 0.376483
vt 0.517896 0.375746
vt 0.518173 0.374784
vt 0.232250 0.572426
vt 0.232255 0.495117
vt 0.516117 0.376313
vt 0.516062 0.375547
vt 0.515991 0.374566
vt 0.232257 0.497188
vt 0.514660 0.376721
vt 0.514349 0.376008
vt 0.513953 0.375074
vt 0.232271 0.499158
vt 0.513532 0.377468
vt 0.513014 0.376899
vt 0.512358 0.376124
vt 0.232270 0.500924
vt 0.506002 0.400898
vt 0.505070 0.400834
vt 0.504155 0.400789
vt 0.232362 0.526180
vt 0.520649 0.380801
vt 0.521429 0.380871
vt 0.522461 0.380892
vt 0.232286 0.564950
vt 0.506391 0.398933
vt 0.505428 0.398964
vt 0.504483 0.398863
vt 0.232331 0.524390
vt 0.517172 0.392939
vt 0.517985 0.393211
vt 0.518975 0.393511
vt 0.232337 0.552211
vt 0.508971 0.390454
vt 0.508136 0.390224
vt 0.507185 0.389936
vt 0.232328 0.515271
vt 0.520252 0.382763
vt 0.521084 0.382698
vt 0.522110 0.382808
vt 0.232271 0.563154
vt 0.215833 0.570211
vt 0.215843 0.568279
vt 0.215886 0.566505
vt 0.215894 0.564853
vt 0.215902 0.563077
vt 0.215941 0.552154
vt 0.215971 0.543077
vt 0.215973 0.541290
vt 0.215976 0.539657
vt 0.215944 0.537851
vt 0.215946 0.535846
vt 0.215948 0.533704
vt 0.215946 0.531590
vt 0.215945 0.529609
vt 0.215974 0.527825
vt 0.215971 0.526202
vt 0.215968 0.524427
vt 0.215937 0.515330
vt 0.215901 0.504404
vt 0.215893 0.502630
vt 0.215852 0.500983
vt 0.215847 0.499215
vt 0.215837 0.497295
vt 0.215826 0.495218
vt 0.215820 0.572329
vt 0.231799 0.524391
vt 0.231786 0.515273
vt 0.231740 0.504331
vt 0.231725 0.502542
vt 0.231714 0.500926
vt 0.231714 0.499160
vt 0.231698 0.497192
vt 0.231691 0.572423
vt 0.231696 0.495121
vt 0.231697 0.570339
vt 0.231715 0.568362
vt 0.231717 0.566575
vt 0.231731 0.564947
vt 0.231718 0.563151
vt 0.231793 0.552209
vt 0.231805 0.543093
vt 0.231838 0.541298
vt 0.231837 0.539657
vt 0.231845 0.537846
vt 0.231850 0.535828
vt 0.231849 0.533706
vt 0.231850 0.531593
vt 0.231843 0.529601
vt 0.231832 0.527804
vt 0.231832 0.526181
s 1
usemtl mat_option_button_R
f 12/12/1 5/5/2 13/13/3
f 5/5/2 7/7/4 13/13/3
f 14/14/5 13/13/3 34/34/6
f 13/13/3 7/7/4 34/34/6
f 34/34/6 7/7/4 1/1/7
f 7/7/4 33/33/8 1/1/7
f 32/32/9 33/33/8 5/5/2
f 33/33/8 7/7/4 5/5/2
f 11/11/10 8/8/11 12/12/1
f 8/8/11 5/5/2 12/12/1
f 32/32/9 5/5/2 37/37/12
f 5/5/2 8/8/11 37/37/12
f 37/37/12 8/8/11 2/2/13
f 8/8/11 36/36/14 2/2/13
f 35/35/15 36/36/14 11/11/10
f 36/36/14 8/8/11 11/11/10
f 16/16/16 6/6/17 17/17/18
f 6/6/17 9/9/19 17/17/18
f 18/18/20 17/17/18 40/40/21
f 17/17/18 9/9/19 40/40/21
f 40/40/21 9/9/19 3/3/22
f 9/9/19 39/39/23 3/3/22
f 38/38/24 39/39/23 6/6/17
f 39/39/23 9/9/19 6/6/17
s 0
f 15/15/25 10/10/26 16/16/27
f 10/10/28 6/6/29 16/16/30
s 1
f 6/6/17 10/10/26 38/38/24
f 10/10/26 41/41/31 38/38/24
f 41/41/31 10/10/26 4/4/32
f 10/10/26 43/43/33 4/4/32
f 42/42/34 43/43/33 15/15/16
f 43/43/33 10/10/26 15/15/16
f 29/29/35 17/17/18 30/30/36
f 17/17/18 18/18/20 30/30/36
f 28/28/37 16/16/16 29/29/35
f 16/16/16 17/17/18 29/29/35
f 27/27/38 15/15/16 28/28/37
f 15/15/16 16/16/16 28/28/37
f 44/44/39 42/42/34 27/27/38
f 42/42/34 15/15/16 27/27/38
f 13/13/3 14/14/5 19/19/40
f 14/14/5 45/45/41 19/19/40
f 12/12/1 13/13/3 20/20/42
f 13/13/3 19/19/40 20/20/42
f 11/11/10 12/12/1 21/21/43
f 12/12/1 20/20/42 21/21/43
f 35/35/15 11/11/10 22/22/44
f 11/11/10 21/21/43 22/22/44
f 45/45/41 31/31/45 19/19/40
f 31/31/45 23/23/46 19/19/40
f 19/19/40 23/23/46 20/20/42
f 23/23/46 24/24/47 20/20/42
f 20/20/42 24/24/47 21/21/43
f 24/24/47 25/25/48 21/21/43
f 21/21/43 25/25/48 22/22/44
f 25/25/48 26/26/49 22/22/44
f 31/31/45 44/44/39 23/23/46
f 44/44/39 27/27/38 23/23/46
f 23/23/46 27/27/38 24/24/47
f 27/27/38 28/28/37 24/24/47
f 24/24/47 28/28/37 25/25/48
f 28/28/37 29/29/35 25/25/48
f 25/25/48 29/29/35 26/26/49
f 29/29/35 30/30/36 26/26/49
f 66/66/50 62/62/51 32/32/9
f 62/62/51 33/33/8 32/32/9
f 62/62/51 58/58/52 33/33/8
f 58/58/52 1/1/7 33/33/8
f 54/54/53 119/119/54 34/34/6
f 119/119/54 14/14/5 34/34/6
f 58/58/52 54/54/53 1/1/7
f 54/54/53 34/34/6 1/1/7
f 82/82/55 78/78/56 35/35/15
f 78/78/56 36/36/14 35/35/15
f 78/78/56 74/74/57 36/36/14
f 74/74/57 2/2/13 36/36/14
f 70/70/58 66/66/50 37/37/12
f 66/66/50 32/32/9 37/37/12
f 74/74/57 70/70/58 2/2/13
f 70/70/58 37/37/12 2/2/13
f 102/102/59 98/98/60 38/38/24
f 98/98/60 39/39/23 38/38/24
f 98/98/60 94/94/61 39/39/23
f 94/94/61 3/3/22 39/39/23
f 90/90/62 123/123/63 40/40/21
f 123/123/63 18/18/20 40/40/21
f 94/94/61 90/90/62 3/3/22
f 90/90/62 40/40/21 3/3/22
f 107/107/64 102/102/59 41/41/31
f 102/102/59 38/38/24 41/41/31
f 111/111/65 107/107/64 4/4/32
f 107/107/64 41/41/31 4/4/32
f 46/46/66 115/115/67 42/42/34
f 115/115/67 43/43/33 42/42/34
f 115/115/67 111/111/65 43/43/33
f 111/111/65 4/4/32 43/43/33
f 123/123/63 139/139/68 18/18/20
f 139/139/68 30/30/36 18/18/20
f 50/50/69 46/46/66 44/44/39
f 46/46/66 42/42/34 44/44/39
f 119/119/54 127/127/70 14/14/5
f 127/127/70 45/45/41 14/14/5
f 86/86/71 82/82/55 22/22/44
f 82/82/55 35/35/15 22/22/44
f 135/135/72 31/31/45 127/127/70
f 31/31/45 45/45/41 127/127/70
f 26/26/49 131/131/73 22/22/44
f 131/131/73 86/86/71 22/22/44
f 50/50/69 44/44/39 135/135/72
f 44/44/39 31/31/45 135/135/72
f 30/30/36 139/139/68 26/26/49
f 139/139/68 131/131/73 26/26/49
f 51/51/74 52/52/75 47/47/76
f 52/52/75 48/48/77 47/47/76
f 50/50/69 51/51/74 46/46/66
f 51/51/74 47/47/76 46/46/66
f 59/59/78 60/60/79 55/55/80
f 60/60/79 56/56/81 55/55/80
f 58/58/52 59/59/78 54/54/53
f 59/59/78 55/55/80 54/54/53
f 63/63/82 64/64/83 59/59/78
f 64/64/83 60/60/79 59/59/78
f 62/62/51 63/63/82 58/58/52
f 63/63/82 59/59/78 58/58/52
f 67/67/84 68/68/85 63/63/82
f 68/68/85 64/64/83 63/63/82
f 66/66/50 67/67/84 62/62/51
f 67/67/84 63/63/82 62/62/51
f 71/71/86 72/72/87 67/67/84
f 72/72/87 68/68/85 67/67/84
f 70/70/58 71/71/86 66/66/50
f 71/71/86 67/67/84 66/66/50
f 75/75/88 76/76/89 71/71/86
f 76/76/89 72/72/87 71/71/86
f 74/74/57 75/75/88 70/70/58
f 75/75/88 71/71/86 70/70/58
f 79/79/90 80/80/91 75/75/88
f 80/80/91 76/76/89 75/75/88
f 78/78/56 79/79/90 74/74/57
f 79/79/90 75/75/88 74/74/57
f 83/83/92 84/84/93 79/79/90
f 84/84/93 80/80/91 79/79/90
f 82/82/55 83/83/92 78/78/56
f 83/83/92 79/79/90 78/78/56
f 87/87/94 88/88/95 83/83/92
f 88/88/95 84/84/93 83/83/92
f 86/86/71 87/87/94 82/82/55
f 87/87/94 83/83/92 82/82/55
f 95/95/96 96/96/97 91/91/98
f 96/96/97 92/92/99 91/91/98
f 94/94/61 95/95/96 90/90/62
f 95/95/96 91/91/98 90/90/62
f 99/99/100 100/100/101 95/95/96
f 100/100/101 96/96/97 95/95/96
f 98/98/60 99/99/100 94/94/61
f 99/99/100 95/95/96 94/94/61
f 103/103/102 104/104/103 99/99/100
f 104/104/103 100/100/101 99/99/100
f 102/102/59 103/103/102 98/98/60
f 103/103/102 99/99/100 98/98/60
f 108/108/104 109/109/105 103/103/102
f 109/109/105 104/104/103 103/103/102
f 107/107/64 108/108/104 102/102/59
f 108/108/104 103/103/102 102/102/59
f 112/112/106 113/113/107 108/108/104
f 113/113/107 109/109/105 108/108/104
f 111/111/65 112/112/106 107/107/64
f 112/112/106 108/108/104 107/107/64
f 116/116/108 117/117/109 112/112/106
f 117/117/109 113/113/107 112/112/106
f 115/115/67 116/116/108 111/111/65
f 116/116/108 112/112/106 111/111/65
f 47/47/76 48/48/77 116/116/108
f 48/48/77 117/117/109 116/116/108
f 46/46/66 47/47/76 115/115/67
f 47/47/76 116/116/108 115/115/67
f 55/55/80 56/56/81 120/120/110
f 56/56/81 121/121/111 120/120/110
f 54/54/53 55/55/80 119/119/54
f 55/55/80 120/120/110 119/119/54
f 91/91/98 92/92/99 124/124/112
f 92/92/99 125/125/113 124/124/112
f 90/90/62 91/91/98 123/123/63
f 91/91/98 124/124/112 123/123/63
f 120/120/110 121/121/111 128/128/114
f 121/121/111 129/129/115 128/128/114
f 119/119/54 120/120/110 127/127/70
f 120/120/110 128/128/114 127/127/70
f 129/129/115 137/137/116 128/128/114
f 137/137/116 136/136/117 128/128/114
f 128/128/114 136/136/117 127/127/70
f 136/136/117 135/135/72 127/127/70
f 132/132/118 133/133/119 87/87/94
f 133/133/119 88/88/95 87/87/94
f 132/132/118 87/87/94 131/131/73
f 87/87/94 86/86/71 131/131/73
f 137/137/116 52/52/75 136/136/117
f 52/52/75 51/51/74 136/136/117
f 136/136/117 51/51/74 135/135/72
f 51/51/74 50/50/69 135/135/72
f 140/140/120 141/141/121 132/132/118
f 141/141/121 133/133/119 132/132/118
f 140/140/120 132/132/118 139/139/68
f 132/132/118 131/131/73 139/139/68
f 124/124/112 125/125/113 140/140/120
f 125/125/113 141/141/121 140/140/120
f 123/123/63 124/124/112 139/139/68
f 124/124/112 140/140/120 139/139/68
f 177/177/122 101/101/101 175/175/123
f 101/101/101 105/105/124 175/175/123
f 178/178/125 97/97/97 177/177/122
f 97/97/97 101/101/101 177/177/122
f 179/179/126 93/93/99 178/178/125
f 93/93/99 97/97/97 178/178/125
f 180/180/127 126/126/128 179/179/126
f 126/126/128 93/93/99 179/179/126
f 181/181/129 142/142/121 180/180/127
f 142/142/121 126/126/128 180/180/127
f 182/182/130 134/134/131 181/181/129
f 134/134/131 142/142/121 181/181/129
f 183/183/132 89/89/95 182/182/130
f 89/89/95 134/134/131 182/182/130
f 184/184/133 85/85/93 183/183/132
f 85/85/93 89/89/95 183/183/132
f 185/185/134 81/81/135 184/184/133
f 81/81/135 85/85/93 184/184/133
f 186/186/136 77/77/137 185/185/134
f 77/77/137 81/81/135 185/185/134
f 187/187/138 73/73/87 186/186/136
f 73/73/87 77/77/137 186/186/136
f 188/188/139 69/69/85 187/187/138
f 69/69/85 73/73/87 187/187/138
f 189/189/140 65/65/83 188/188/139
f 65/65/83 69/69/85 188/188/139
f 190/190/141 61/61/79 189/189/140
f 61/61/79 65/65/83 189/189/140
f 191/191/142 57/57/81 190/190/141
f 57/57/81 61/61/79 190/190/141
f 192/192/143 122/122/144 191/191/142
f 122/122/144 57/57/81 191/191/142
f 168/168/145 130/130/146 192/192/143
f 130/130/146 122/122/144 192/192/143
f 169/169/147 138/138/116 168/168/145
f 138/138/116 130/130/146 168/168/145
f 170/170/148 53/53/149 169/169/147
f 53/53/149 138/138/116 169/169/147
f 171/171/150 49/49/77 170/170/148
f 49/49/77 53/53/149 170/170/148
f 172/172/151 118/118/109 171/171/150
f 118/118/109 49/49/77 171/171/150
f 173/173/152 114/114/107 172/172/151
f 114/114/107 118/118/109 172/172/151
f 174/174/153 110/110/105 173/173/152
f 110/110/105 114/114/107 173/173/152
f 176/176/154 106/106/124 174/174/153
f 106/106/124 110/110/105 174/174/153
f 160/160/155 169/169/147 159/159/156
f 169/169/147 168/168/145 159/159/156
f 161/161/157 170/170/148 160/160/155
f 170/170/148 169/169/147 160/160/155
f 162/162/158 171/171/150 161/161/157
f 171/171/150 170/170/148 161/161/157
f 163/163/159 172/172/151 162/162/158
f 172/172/151 171/171/150 162/162/158
f 164/164/160 173/173/152 163/163/159
f 173/173/152 172/172/151 163/163/159
f 165/165/161 174/174/153 164/164/160
f 174/174/153 173/173/152 164/164/160
f 166/166/123 176/176/154 165/165/161
f 176/176/154 174/174/153 165/165/161
f 143/143/162 177/177/122 167/167/123
f 177/177/122 175/175/123 167/167/123
f 144/144/163 178/178/125 143/143/162
f 178/178/125 177/177/122 143/143/162
f 145/145/164 179/179/126 144/144/163
f 179/179/126 178/178/125 144/144/163
f 146/146/165 180/180/127 145/145/164
f 180/180/127 179/179/126 145/145/164
f 147/147/166 181/181/129 146/146/165
f 181/181/129 180/180/127 146/146/165
f 148/148/167 182/182/130 147/147/166
f 182/182/130 181/181/129 147/147/166
f 149/149/168 183/183/132 148/148/167
f 183/183/132 182/182/130 148/148/167
f 150/150/169 184/184/133 149/149/168
f 184/184/133 183/183/132 149/149/168
f 151/151/170 185/185/134 150/150/169
f 185/185/134 184/184/133 150/150/169
f 152/152/171 186/186/136 151/151/170
f 186/186/136 185/185/134 151/151/170
f 153/153/172 187/187/138 152/152/171
f 187/187/138 186/186/136 152/152/171
f 154/154/139 188/188/139 153/153/172
f 188/188/139 187/187/138 153/153/172
f 155/155/173 189/189/140 154/154/139
f 189/189/140 188/188/139 154/154/139
f 156/156/174 190/190/141 155/155/173
f 190/190/141 189/189/140 155/155/173
f 157/157/175 191/191/142 156/156/174
f 191/191/142 190/190/141 156/156/174
f 158/158/176 192/192/143 157/157/175
f 192/192/143 191/191/142 157/157/175
f 159/159/156 168/168/145 158/158/176
f 168/168/145 192/192/143 158/158/176
